<?xml version="1.0" encoding="UTF-8" standalone="no"?>
<!-- Created with Inkscape (http://www.inkscape.org/) -->

<svg
   width="245.40337mm"
   height="245.40337mm"
   viewBox="0 0 245.40337 245.40337"
   version="1.1"
   id="svg2358"
   sodipodi:docname="logo.svg"
   inkscape:version="1.3 (0e150ed6c4, 2023-07-21)"
   inkscape:export-filename="logo.png"
   inkscape:export-xdpi="103.50306"
   inkscape:export-ydpi="103.50306"
   xmlns:inkscape="http://www.inkscape.org/namespaces/inkscape"
   xmlns:sodipodi="http://sodipodi.sourceforge.net/DTD/sodipodi-0.dtd"
   xmlns:xlink="http://www.w3.org/1999/xlink"
   xmlns="http://www.w3.org/2000/svg"
   xmlns:svg="http://www.w3.org/2000/svg">
  <sodipodi:namedview
     id="namedview2360"
     pagecolor="#ffffff"
     bordercolor="#666666"
     borderopacity="1.0"
     inkscape:pageshadow="2"
     inkscape:pageopacity="0.0"
     inkscape:pagecheckerboard="0"
     inkscape:document-units="mm"
     showgrid="false"
     fit-margin-top="5"
     fit-margin-left="5"
     fit-margin-right="5"
     fit-margin-bottom="5"
     inkscape:zoom="0.9839478"
     inkscape:cx="-162.1021"
     inkscape:cy="677.37333"
     inkscape:window-width="3840"
     inkscape:window-height="2054"
     inkscape:window-x="-11"
     inkscape:window-y="-11"
     inkscape:window-maximized="1"
     inkscape:current-layer="layer1"
     inkscape:showpageshadow="2"
     inkscape:deskcolor="#d1d1d1" />
  <defs
     id="defs2355">
    <color-profile
       name="ISO-Coated-v2-300---ECI-"
       xlink:href="../../../WINDOWS/system32/spool/drivers/color/ISOcoated_v2_300_eci.icc"
       id="color-profile2" />
  </defs>
  <g
     inkscape:label="Ebene 1"
     inkscape:groupmode="layer"
     id="layer1"
     transform="translate(-86.072969,-21.805362)">
    <circle
       r="117.70168"
       cy="140.78098"
       cx="211.30515"
       id="blue_background"
       style="display:inline;vector-effect:none;fill:#0e2b68;fill-opacity:1;stroke:none;stroke-width:1;stroke-linecap:butt;stroke-linejoin:miter;stroke-miterlimit:4;stroke-dasharray:none;stroke-dashoffset:0;stroke-opacity:1"
       inkscape:label="blue_background"
       transform="rotate(1.0163926)" />
    <circle
       r="90.617363"
       cy="144.50705"
       cx="208.77466"
       id="green_background"
       style="display:inline;vector-effect:none;fill:#30983e;fill-opacity:1;stroke:none;stroke-width:1;stroke-linecap:butt;stroke-linejoin:miter;stroke-miterlimit:4;stroke-dasharray:none;stroke-dashoffset:0;stroke-opacity:1"
       inkscape:label="green_background" />
    <g
       id="hops"
       style="fill:#fce190;fill-opacity:1;stroke:none;stroke-width:0;stroke-miterlimit:4;stroke-dasharray:none"
       inkscape:label="hops"
       transform="matrix(0.96705922,0,0,0.96705922,265.7644,103.43653)">
      <path
         inkscape:connector-curvature="0"
         id="path2303"
         d="m -15.743046,-4.2612812 a 1.6178025,1.6178025 0 0 0 -1.062776,0.424847 1.6178025,1.6178025 0 0 0 -0.107198,2.2821911 l 3.096011,3.3852212 c -5.510344,6.0124639 -6.605215,14.6994409 -0.914015,22.5265729 2.713439,-2.698064 5.0898185,-5.330761 5.827109,-7.908913 a 1.6179645,1.6179645 0 0 1 2.4825758,-0.878572 c 2.0756681,1.459065 5.44096739,1.892293 9.1817221,1.986415 C 2.9999709,13.821788 2.8737812,10.426174 1.605275,8.2286378 A 1.6179645,1.6179645 0 0 1 2.7017572,5.8344374 C 5.3353216,5.3297097 8.1690244,3.1972618 11.09807,0.73494846 7.2074015,-2.66655 2.8854974,-4.1826641 -1.2728283,-4.0985182 c -3.6497583,0.073855 -7.1730356,1.3813892 -10.1683587,3.72825 l -3.082008,-3.3699073 a 1.6178025,1.6178025 0 0 0 -1.219851,-0.5211057 z"
         style="color:#000000;font-style:normal;font-variant:normal;font-weight:normal;font-stretch:normal;font-size:medium;line-height:normal;font-family:sans-serif;font-variant-ligatures:normal;font-variant-position:normal;font-variant-caps:normal;font-variant-numeric:normal;font-variant-alternates:normal;font-feature-settings:normal;text-indent:0;text-align:start;text-decoration:none;text-decoration-line:none;text-decoration-style:solid;text-decoration-color:#000000;letter-spacing:normal;word-spacing:normal;text-transform:none;writing-mode:lr-tb;direction:ltr;text-orientation:mixed;dominant-baseline:auto;baseline-shift:baseline;text-anchor:start;white-space:normal;shape-padding:0;clip-rule:nonzero;display:inline;overflow:visible;visibility:visible;isolation:auto;mix-blend-mode:normal;color-interpolation:sRGB;color-interpolation-filters:linearRGB;solid-color:#000000;solid-opacity:1;vector-effect:none;fill:#fce190;fill-opacity:1;fill-rule:nonzero;stroke:none;stroke-width:1;stroke-linecap:round;stroke-linejoin:round;stroke-miterlimit:4;stroke-dasharray:none;stroke-dashoffset:0;stroke-opacity:1;color-rendering:auto;image-rendering:auto;shape-rendering:auto;text-rendering:auto;enable-background:accumulate" />
      <path
         inkscape:connector-curvature="0"
         id="path2301"
         d="M 11.575431,4.9239244 C 9.404443,6.493897 7.2178632,7.6301784 4.9603142,8.3397735 5.612388,9.8983682 6.0627553,11.588979 6.2842874,13.430073 c 0.1065209,0.01944 0.2130195,0.03971 0.319406,0.05425 C 9.5668566,13.889401 12.944634,12.624712 16.78604,10.338003 15.08585,7.9459126 13.366147,6.1114388 11.575431,4.9239244 Z"
         style="color:#000000;font-style:normal;font-variant:normal;font-weight:normal;font-stretch:normal;font-size:medium;line-height:normal;font-family:sans-serif;font-variant-ligatures:normal;font-variant-position:normal;font-variant-caps:normal;font-variant-numeric:normal;font-variant-alternates:normal;font-feature-settings:normal;text-indent:0;text-align:start;text-decoration:none;text-decoration-line:none;text-decoration-style:solid;text-decoration-color:#000000;letter-spacing:normal;word-spacing:normal;text-transform:none;writing-mode:lr-tb;direction:ltr;text-orientation:mixed;dominant-baseline:auto;baseline-shift:baseline;text-anchor:start;white-space:normal;shape-padding:0;clip-rule:nonzero;display:inline;overflow:visible;visibility:visible;isolation:auto;mix-blend-mode:normal;color-interpolation:sRGB;color-interpolation-filters:linearRGB;solid-color:#000000;solid-opacity:1;vector-effect:none;fill:#fce190;fill-opacity:1;fill-rule:nonzero;stroke:none;stroke-width:1;stroke-linecap:round;stroke-linejoin:round;stroke-miterlimit:4;stroke-dasharray:none;stroke-dashoffset:0;stroke-opacity:1;color-rendering:auto;image-rendering:auto;shape-rendering:auto;text-rendering:auto;enable-background:accumulate" />
      <path
         inkscape:connector-curvature="0"
         id="path2299"
         d="m 16.36251,14.449972 c -1.116778,0.574929 -2.220787,1.062169 -3.315657,1.43862 0.858485,1.421947 1.358697,3.081451 1.539256,4.948101 1.521916,-0.40665 3.147665,-1.040831 4.878546,-1.858218 -0.992,-1.786977 -2.019417,-3.303243 -3.102145,-4.528503 z"
         style="color:#000000;font-style:normal;font-variant:normal;font-weight:normal;font-stretch:normal;font-size:medium;line-height:normal;font-family:sans-serif;font-variant-ligatures:normal;font-variant-position:normal;font-variant-caps:normal;font-variant-numeric:normal;font-variant-alternates:normal;font-feature-settings:normal;text-indent:0;text-align:start;text-decoration:none;text-decoration-line:none;text-decoration-style:solid;text-decoration-color:#000000;letter-spacing:normal;word-spacing:normal;text-transform:none;writing-mode:lr-tb;direction:ltr;text-orientation:mixed;dominant-baseline:auto;baseline-shift:baseline;text-anchor:start;white-space:normal;shape-padding:0;clip-rule:nonzero;display:inline;overflow:visible;visibility:visible;isolation:auto;mix-blend-mode:normal;color-interpolation:sRGB;color-interpolation-filters:linearRGB;solid-color:#000000;solid-opacity:1;vector-effect:none;fill:#fce190;fill-opacity:1;fill-rule:nonzero;stroke:none;stroke-width:1;stroke-linecap:round;stroke-linejoin:round;stroke-miterlimit:4;stroke-dasharray:none;stroke-dashoffset:0;stroke-opacity:1;color-rendering:auto;image-rendering:auto;shape-rendering:auto;text-rendering:auto;enable-background:accumulate" />
      <path
         inkscape:connector-curvature="0"
         id="path2296"
         d="m 9.6537759,16.697597 c -1.0765446,0.136217 -2.1490119,0.14893 -3.2215913,0.02538 -0.02453,0.97624 -0.1046391,1.98904 -0.2485264,3.043942 a 1.6179645,1.6179645 0 0 1 -1.5270014,1.397055 c -1.061356,0.04925 -2.0755785,0.03897 -3.0483127,-0.02319 0.026815,1.076658 -0.081521,2.141339 -0.3128422,3.199267 1.7486007,1.80463 4.9829834,2.4969 9.5838131,2.094051 0.810948,-4.546003 0.414883,-7.833684 -1.2255391,-9.736502 z"
         style="color:#000000;font-style:normal;font-variant:normal;font-weight:normal;font-stretch:normal;font-size:medium;line-height:normal;font-family:sans-serif;font-variant-ligatures:normal;font-variant-position:normal;font-variant-caps:normal;font-variant-numeric:normal;font-variant-alternates:normal;font-feature-settings:normal;text-indent:0;text-align:start;text-decoration:none;text-decoration-line:none;text-decoration-style:solid;text-decoration-color:#000000;letter-spacing:normal;word-spacing:normal;text-transform:none;writing-mode:lr-tb;direction:ltr;text-orientation:mixed;dominant-baseline:auto;baseline-shift:baseline;text-anchor:start;white-space:normal;shape-padding:0;clip-rule:nonzero;display:inline;overflow:visible;visibility:visible;isolation:auto;mix-blend-mode:normal;color-interpolation:sRGB;color-interpolation-filters:linearRGB;solid-color:#000000;solid-opacity:1;vector-effect:none;fill:#fce190;fill-opacity:1;fill-rule:nonzero;stroke:none;stroke-width:1;stroke-linecap:round;stroke-linejoin:round;stroke-miterlimit:4;stroke-dasharray:none;stroke-dashoffset:0;stroke-opacity:1;color-rendering:auto;image-rendering:auto;shape-rendering:auto;text-rendering:auto;enable-background:accumulate" />
      <path
         inkscape:connector-curvature="0"
         id="path2294"
         d="m -6.6164595,18.927722 c -0.9082617,2.186369 -2.2328845,4.261643 -3.9894695,6.283464 1.0251189,1.887537 2.7015857,3.76166 4.932342,5.667849 2.6175471,-3.620598 4.1798762,-6.875311 4.0406486,-9.861639 -0.00493,-0.105061 -0.015457,-0.210737 -0.024933,-0.31634 -1.8165233,-0.384579 -3.4625682,-0.984121 -4.9585881,-1.773334 z"
         style="color:#000000;font-style:normal;font-variant:normal;font-weight:normal;font-stretch:normal;font-size:medium;line-height:normal;font-family:sans-serif;font-variant-ligatures:normal;font-variant-position:normal;font-variant-caps:normal;font-variant-numeric:normal;font-variant-alternates:normal;font-feature-settings:normal;text-indent:0;text-align:start;text-decoration:none;text-decoration-line:none;text-decoration-style:solid;text-decoration-color:#000000;letter-spacing:normal;word-spacing:normal;text-transform:none;writing-mode:lr-tb;direction:ltr;text-orientation:mixed;dominant-baseline:auto;baseline-shift:baseline;text-anchor:start;white-space:normal;shape-padding:0;clip-rule:nonzero;display:inline;overflow:visible;visibility:visible;isolation:auto;mix-blend-mode:normal;color-interpolation:sRGB;color-interpolation-filters:linearRGB;solid-color:#000000;solid-opacity:1;vector-effect:none;fill:#fce190;fill-opacity:1;fill-rule:nonzero;stroke:none;stroke-width:1;stroke-linecap:round;stroke-linejoin:round;stroke-miterlimit:4;stroke-dasharray:none;stroke-dashoffset:0;stroke-opacity:1;color-rendering:auto;image-rendering:auto;shape-rendering:auto;text-rendering:auto;enable-background:accumulate" />
      <path
         inkscape:connector-curvature="0"
         id="path2292"
         d="m 16.136744,23.9012 c -0.521426,0.149761 -1.038416,0.276415 -1.551509,0.381531 -0.108806,1.302387 -0.329845,2.676428 -0.657181,4.116344 a 1.6179653,1.6179653 0 0 1 -1.363804,1.247417 c -1.46338,0.197773 -2.851378,0.295056 -4.1583482,0.287464 -0.1496893,0.49949 -0.320862,1.000947 -0.5153999,1.504686 1.93084,1.525602 5.0464251,2.123963 9.2525791,1.845532 0.651783,-4.1632 0.338873,-7.323106 -1.006337,-9.382974 z"
         style="color:#000000;font-style:normal;font-variant:normal;font-weight:normal;font-stretch:normal;font-size:medium;line-height:normal;font-family:sans-serif;font-variant-ligatures:normal;font-variant-position:normal;font-variant-caps:normal;font-variant-numeric:normal;font-variant-alternates:normal;font-feature-settings:normal;text-indent:0;text-align:start;text-decoration:none;text-decoration-line:none;text-decoration-style:solid;text-decoration-color:#000000;letter-spacing:normal;word-spacing:normal;text-transform:none;writing-mode:lr-tb;direction:ltr;text-orientation:mixed;dominant-baseline:auto;baseline-shift:baseline;text-anchor:start;white-space:normal;shape-padding:0;clip-rule:nonzero;display:inline;overflow:visible;visibility:visible;isolation:auto;mix-blend-mode:normal;color-interpolation:sRGB;color-interpolation-filters:linearRGB;solid-color:#000000;solid-opacity:1;vector-effect:none;fill:#fce190;fill-opacity:1;fill-rule:nonzero;stroke:none;stroke-width:1;stroke-linecap:round;stroke-linejoin:round;stroke-miterlimit:4;stroke-dasharray:none;stroke-dashoffset:0;stroke-opacity:1;color-rendering:auto;image-rendering:auto;shape-rendering:auto;text-rendering:auto;enable-background:accumulate" />
      <path
         inkscape:connector-curvature="0"
         id="path2139-2-9"
         d="m 0.18329359,27.655703 c -0.47254515,1.055643 -1.05568836,2.110738 -1.72696059,3.170389 1.12271481,1.188852 2.54023826,2.348638 4.2318486,3.495918 C 3.6564355,32.670905 4.4325484,31.10776 4.9729937,29.628116 3.1306859,29.282175 1.5226121,28.636697 0.18329359,27.655703 Z"
         style="color:#000000;font-style:normal;font-variant:normal;font-weight:normal;font-stretch:normal;font-size:medium;line-height:normal;font-family:sans-serif;font-variant-ligatures:normal;font-variant-position:normal;font-variant-caps:normal;font-variant-numeric:normal;font-variant-alternates:normal;font-feature-settings:normal;text-indent:0;text-align:start;text-decoration:none;text-decoration-line:none;text-decoration-style:solid;text-decoration-color:#000000;letter-spacing:normal;word-spacing:normal;text-transform:none;writing-mode:lr-tb;direction:ltr;text-orientation:mixed;dominant-baseline:auto;baseline-shift:baseline;text-anchor:start;white-space:normal;shape-padding:0;clip-rule:nonzero;display:inline;overflow:visible;visibility:visible;isolation:auto;mix-blend-mode:normal;color-interpolation:sRGB;color-interpolation-filters:linearRGB;solid-color:#000000;solid-opacity:1;vector-effect:none;fill:#fce190;fill-opacity:1;fill-rule:nonzero;stroke:none;stroke-width:1;stroke-linecap:round;stroke-linejoin:round;stroke-miterlimit:4;stroke-dasharray:none;stroke-dashoffset:0;stroke-opacity:1;color-rendering:auto;image-rendering:auto;shape-rendering:auto;text-rendering:auto;enable-background:accumulate" />
    </g>
    <g
       id="barley"
       style="fill:#fce190;fill-opacity:1;stroke:none"
       inkscape:label="barley"
       transform="matrix(1.2316083,0,0,1.2316083,18.306636,99.460412)">
      <path
         inkscape:connector-curvature="0"
         id="path6033"
         d="m 95.495498,37.930283 2.678475,-5.316726 2.678427,-5.316632 -0.59585,-0.503327 C 98.924542,25.670743 97.782459,23.794197 97.418981,22.134054 97.03392,20.374937 97.332991,17.7044 98.150644,15.602195 l 0.308197,-0.782803 0.702609,0.472535 c 4.20491,2.792386 5.90537,6.708245 4.73019,10.894073 -0.29207,1.041876 -0.63804,1.766627 -3.30698,6.926699 l -2.980384,5.762942 c -0.661859,1.279033 -2.719872,0.247978 -2.105992,-0.93834 z"
         style="clip-rule:evenodd;display:inline;fill:#fce190;fill-opacity:1;fill-rule:evenodd;stroke:none;stroke-width:1;stroke-linecap:round;stroke-linejoin:round;stroke-miterlimit:2.75;stroke-dasharray:none" />
      <path
         inkscape:connector-curvature="0"
         id="path6031"
         d="m 105.69274,28.38423 c 0.0296,-0.05727 0.20142,-0.576468 0.38545,-1.163849 0.40773,-1.295839 0.56953,-2.336438 0.57771,-3.716096 l 0.006,-1.041993 0.93757,-0.30451 c 1.68875,-0.548664 3.75762,-0.348673 5.96802,0.577008 l 1.03999,0.441279 -0.17508,0.336939 c -0.37611,0.723438 -1.67828,2.346835 -2.46103,3.066017 -1.37181,1.260695 -2.89011,1.949015 -4.48581,2.033008 -0.8132,0.0431 -1.86587,-0.08743 -1.79567,-0.223085 z"
         style="clip-rule:evenodd;display:inline;fill:#fce190;fill-opacity:1;fill-rule:evenodd;stroke:none;stroke-width:1;stroke-linecap:round;stroke-linejoin:round;stroke-miterlimit:2.75;stroke-dasharray:none" />
      <path
         inkscape:connector-curvature="0"
         id="path6029"
         d="m 105.83333,17.380324 c -3.65952,-2.570742 -4.66568,-5.613179 -3.29004,-9.9476773 0.19675,-0.621264 0.44034,-1.288655 0.54069,-1.482582 l 0.18242,-0.352531 0.98871,0.608512 c 1.13243,0.694954 2.57122,2.00514 3.17783,2.901241 0.66191,0.9771673 1.0605,2.4638963 1.03589,3.8593893 -0.0226,1.286647 -0.40449,3.188751 -0.90237,4.494009 l -0.29175,0.774369 -0.55661,-0.312341 c -0.30619,-0.171302 -0.70437,-0.412944 -0.88251,-0.541498 z"
         style="clip-rule:evenodd;display:inline;fill:#fce190;fill-opacity:1;fill-rule:evenodd;stroke:none;stroke-width:1;stroke-linecap:round;stroke-linejoin:round;stroke-miterlimit:2.75;stroke-dasharray:none" />
      <path
         inkscape:connector-curvature="0"
         id="path6027"
         d="m 110.03165,17.596288 c 0.24936,-0.772084 0.54521,-1.994523 0.65761,-2.717313 l 0.2041,-1.314254 0.74858,-0.37931 c 1.78812,-0.90574 4.149,-0.796532 6.71697,0.310676 l 1.02631,0.446246 -0.18242,0.352531 c -0.26845,0.518756 -1.53867,2.168259 -2.10195,2.730159 -1.58486,1.581158 -3.44415,2.371119 -5.41682,2.30146 -0.66506,-0.02316 -1.41145,-0.10662 -1.65892,-0.183804 l -0.45225,-0.137136 z"
         style="clip-rule:evenodd;display:inline;fill:#fce190;fill-opacity:1;fill-rule:evenodd;stroke:none;stroke-width:1;stroke-linecap:round;stroke-linejoin:round;stroke-miterlimit:2.75;stroke-dasharray:none" />
      <path
         inkscape:connector-curvature="0"
         id="path6025"
         d="m 109.92484,7.7482197 c -2.65989,-1.848765 -3.94319,-4.11013 -3.82596,-6.738999 0.0294,-0.66304197 0.15754,-1.61751297 0.2852,-2.1216771 0.25762,-1.0221514 0.87925,-2.7617651 1.00089,-2.8002091 0.16374,-0.052101 1.47688,0.7770997 2.37318,1.5054114 1.20514,0.9736622 2.00682,2.04373983 2.44343,3.25992083 0.71332,1.98799097 0.56219,3.72277797 -0.65182,7.48301297 -0.10992,0.329451 -0.13692,0.334897 -0.53988,0.109413 -0.23584,-0.13173 -0.72217,-0.446458 -1.08388,-0.696557 z"
         style="clip-rule:evenodd;display:inline;fill:#fce190;fill-opacity:1;fill-rule:evenodd;stroke:none;stroke-width:1;stroke-linecap:round;stroke-linejoin:round;stroke-miterlimit:2.75;stroke-dasharray:none" />
      <path
         inkscape:connector-curvature="0"
         id="path6023"
         d="m 113.7492,9.2645377 c 0.0489,-0.164856 0.19089,-0.57948 0.31739,-0.9222 0.12789,-0.340773 0.37932,-1.229253 0.55969,-1.973331 l 0.3272,-1.353237 c 0.9446,-0.914948 3.21163,-1.767051 4.71985,-1.673803 1.02278,0.07385 2.26455,0.396685 3.45014,0.893902 l 1.08628,0.453163 -0.52087,0.819323 c -1.30588,2.04611 -3.20155,3.701036 -4.87186,4.25196 -1.37022,0.4524673 -3.17212,0.4427103 -4.61479,-0.0237 -0.49142,-0.157408 -0.52648,-0.199677 -0.44999,-0.473864 z"
         style="clip-rule:evenodd;display:inline;fill:#fce190;fill-opacity:1;fill-rule:evenodd;stroke:none;stroke-width:1;stroke-linecap:round;stroke-linejoin:round;stroke-miterlimit:2.75;stroke-dasharray:none" />
      <path
         inkscape:connector-curvature="0"
         id="path4519-5-5-8"
         d="m 114.9013,1.2634347 c -0.47525,-3.0013484 -0.20643,-5.1142877 0.87645,-6.8888397 0.85764,-1.4045523 2.17749,-2.4174574 4.3539,-3.3378814 l 1.04339,-0.441131 0.18796,0.739187 c 0.30754,1.205588 0.43962,3.0030082 0.30963,4.2056689 -0.30426,2.8162248 -1.97773,4.87051023 -5.11466,6.2797802 -0.69569,0.312209 -1.31652,0.540574 -1.38053,0.50745 -0.0669,-0.03466 -0.1882,-0.511619 -0.27533,-1.064179 z"
         style="clip-rule:evenodd;display:inline;fill:#fce190;fill-opacity:1;fill-rule:evenodd;stroke:none;stroke-width:1;stroke-linecap:round;stroke-linejoin:round;stroke-miterlimit:2.75;stroke-dasharray:none" />
    </g>
    <g
       transform="matrix(1.1584072,0.66880671,-0.66880671,1.1584072,80.921482,654.75599)"
       id="bottle_1"
       style="display:inline;stroke:#30983e;stroke-width:1.4952;stroke-dasharray:none;stroke-opacity:1"
       inkscape:label="bottle 1">
      <path
         id="path4584-5-4"
         style="display:inline;fill:#0e2b68;fill-opacity:1;stroke:#30983e;stroke-width:1.4952;stroke-linecap:round;stroke-linejoin:miter;stroke-miterlimit:4;stroke-dasharray:none;stroke-opacity:1"
         d="m -126.02514,-434.33902 c -1.17285,0 -1.26113,2.22409 -0.22734,2.54775 -1.14031,2.84252 -1.888,4.97613 0.15174,5.77698 l -1.67146,23.8462 c -0.92025,13.13021 -6.68142,9.43627 -6.51364,20.35707 l 0.86966,56.59931 c 0,0 3.98838,2.08587 12.89045,2.08587 8.90206,0 12.89045,-2.08587 12.89045,-2.08587 l 0.86911,-56.59931 c 0.16778,-10.9208 -5.59338,-7.22686 -6.51366,-20.35707 l -1.67145,-23.8462 c 2.03975,-0.80085 1.29205,-2.93446 0.15175,-5.77698 1.0338,-0.32366 0.94549,-2.54775 -0.22733,-2.54775 h -5.49887 z"
         inkscape:connector-curvature="0" />
    </g>
    <g
       transform="matrix(1.1584072,-0.66880671,0.66880671,1.1584072,610.62002,493.875)"
       id="bottle_2"
       style="display:inline;fill:#0e2b68;fill-opacity:1;stroke:#30983e;stroke-width:1.4952;stroke-dasharray:none;stroke-opacity:1"
       inkscape:label="bottle 2">
      <path
         id="path4584-5-4-1"
         style="display:inline;fill:#0e2b68;fill-opacity:1;stroke:#30983e;stroke-width:1.4952;stroke-linecap:round;stroke-linejoin:miter;stroke-miterlimit:4;stroke-dasharray:none;stroke-opacity:1"
         d="m -122.50465,-432.59654 c -1.17285,0 -1.26113,2.22409 -0.22734,2.54775 -1.14031,2.84252 -1.888,4.97613 0.15174,5.77698 l -1.67146,23.8462 c -0.92025,13.13021 -6.68142,9.43627 -6.51364,20.35707 l 0.86966,56.59931 c 0,0 3.98838,2.08587 12.89045,2.08587 8.90206,0 12.89045,-2.08587 12.89045,-2.08587 l 0.86911,-56.59931 c 0.16778,-10.9208 -5.59338,-7.22686 -6.51366,-20.35707 l -1.67145,-23.8462 c 2.03975,-0.80085 1.29205,-2.93446 0.15175,-5.77698 1.0338,-0.32366 0.94549,-2.54775 -0.22733,-2.54775 h -5.49887 z"
         inkscape:connector-curvature="0" />
    </g>
    <g
       id="ball"
       transform="matrix(0.77941834,0.51758571,-0.51758571,0.77941834,99.691559,-227.30926)"
       style="stroke-width:1.92385;stroke-dasharray:none">
      <circle
         style="display:inline;fill:#fce190;fill-opacity:1;stroke:#30983e;stroke-width:1.92385;stroke-linecap:round;stroke-dasharray:none;stroke-opacity:1"
         id="path9-6-6-2-2"
         cx="-352.33099"
         cy="319.81204"
         transform="scale(-1,1)"
         r="22.097771" />
      <path
         style="display:inline;fill:#fce190;fill-opacity:1;stroke:#0e2b68;stroke-width:1.92385;stroke-linecap:round;stroke-dasharray:none;stroke-opacity:1"
         d="m 336.22835,304.67871 c 7.5329,-2.90768 17.52073,-3.53225 23.81177,0.63636"
         id="path8-8-0-6-0"
         sodipodi:nodetypes="cc" />
      <path
         style="display:inline;fill:#fce190;fill-opacity:1;stroke:#0e2b68;stroke-width:1.92385;stroke-linecap:round;stroke-dasharray:none;stroke-opacity:1"
         d="m 331.18596,313.39336 c 5.79788,-3.21665 19.53068,-4.48214 26.55852,-0.53932"
         id="path8-9-4-0-6-7"
         sodipodi:nodetypes="cc" />
      <path
         style="display:inline;fill:#fce190;fill-opacity:1;stroke:#0e2b68;stroke-width:1.92385;stroke-linecap:round;stroke-dasharray:none;stroke-opacity:1"
         d="m 373.48814,313.43331 c -1.24834,7.97753 -5.70135,16.93953 -12.457,20.30342"
         id="path8-2-4-7-3-1"
         sodipodi:nodetypes="cc" />
      <path
         style="display:inline;fill:#fce190;fill-opacity:1;stroke:#0e2b68;stroke-width:1.92385;stroke-linecap:round;stroke-dasharray:none;stroke-opacity:1"
         d="m 368.46222,304.70914 c -0.11323,6.62944 -5.88369,19.15515 -12.81221,23.27002"
         id="path8-9-0-6-4-6-1"
         sodipodi:nodetypes="cc" />
      <path
         style="display:inline;fill:#fce190;fill-opacity:1;stroke:#0e2b68;stroke-width:1.92385;stroke-linecap:round;stroke-dasharray:none;stroke-opacity:1"
         d="m 347.27653,341.32394 c -6.28458,-5.06985 -11.81939,-13.40727 -11.35479,-20.93979"
         id="path8-0-5-8-3-8"
         sodipodi:nodetypes="cc" />
      <path
         style="display:inline;fill:#fce190;fill-opacity:1;stroke:#0e2b68;stroke-width:1.92385;stroke-linecap:round;stroke-dasharray:none;stroke-opacity:1"
         d="m 357.34483,341.33345 c -5.68464,-3.41278 -13.64699,-14.673 -13.74633,-22.7307"
         id="path8-9-9-5-4-7-9"
         sodipodi:nodetypes="cc" />
      <path
         style="fill:none;fill-opacity:1;stroke:#0e2b68;stroke-width:1.92385;stroke-linecap:round;stroke-dasharray:none;stroke-opacity:1"
         d="m 352.33099,319.81199 c 6.33513,-4.96294 7.95015,-12.96137 9.45857,-19.9711"
         id="path6-6-9-7"
         sodipodi:nodetypes="cc" />
      <path
         style="fill:none;fill-opacity:1;stroke:#0e2b68;stroke-width:1.92385;stroke-linecap:round;stroke-dasharray:none;stroke-opacity:1"
         d="m 352.33099,319.81204 c -7.4656,-3.00492 -15.19995,-0.40435 -22.02477,1.79418"
         id="path6-6-9-7-1"
         sodipodi:nodetypes="cc" />
      <path
         style="fill:none;fill-opacity:1;stroke:#0e2b68;stroke-width:1.92385;stroke-linecap:round;stroke-dasharray:none;stroke-opacity:1"
         d="m 352.33099,319.81199 c 1.13046,7.96786 7.2498,13.36572 12.56619,18.17692"
         id="path6-6-9-7-8"
         sodipodi:nodetypes="cc" />
      <circle
         style="display:inline;fill:none;fill-opacity:1;stroke:#30983e;stroke-width:1.92385;stroke-linecap:round;stroke-dasharray:none;stroke-opacity:1"
         id="path9-4-9-8-9-9"
         cx="-352.33099"
         cy="319.81204"
         transform="scale(-1,1)"
         r="22.097771" />
    </g>
  </g>
</svg>
