<?xml version="1.0" encoding="UTF-8" standalone="no"?>
<!-- Created with Inkscape (http://www.inkscape.org/) -->

<svg
   width="245.40337mm"
   height="245.40337mm"
   viewBox="0 0 245.40337 245.40337"
   version="1.1"
   id="svg2358"
   sodipodi:docname="logo_textAsPath.svg"
   inkscape:version="1.3 (0e150ed6c4, 2023-07-21)"
   inkscape:export-filename="logo_f.png"
   inkscape:export-xdpi="103.50306"
   inkscape:export-ydpi="103.50306"
   xmlns:inkscape="http://www.inkscape.org/namespaces/inkscape"
   xmlns:sodipodi="http://sodipodi.sourceforge.net/DTD/sodipodi-0.dtd"
   xmlns:xlink="http://www.w3.org/1999/xlink"
   xmlns="http://www.w3.org/2000/svg"
   xmlns:svg="http://www.w3.org/2000/svg">
  <sodipodi:namedview
     id="namedview2360"
     pagecolor="#ffffff"
     bordercolor="#666666"
     borderopacity="1.0"
     inkscape:pageshadow="2"
     inkscape:pageopacity="0.0"
     inkscape:pagecheckerboard="0"
     inkscape:document-units="mm"
     showgrid="false"
     fit-margin-top="5"
     fit-margin-left="5"
     fit-margin-right="5"
     fit-margin-bottom="5"
     inkscape:zoom="0.9839478"
     inkscape:cx="-161.59394"
     inkscape:cy="677.37333"
     inkscape:window-width="3840"
     inkscape:window-height="2054"
     inkscape:window-x="-11"
     inkscape:window-y="-11"
     inkscape:window-maximized="1"
     inkscape:current-layer="layer1"
     inkscape:showpageshadow="2"
     inkscape:deskcolor="#d1d1d1" />
  <defs
     id="defs2355">
    <color-profile
       name="ISO-Coated-v2-300---ECI-"
       xlink:href="../../../WINDOWS/system32/spool/drivers/color/ISOcoated_v2_300_eci.icc"
       id="color-profile2" />
  </defs>
  <g
     inkscape:label="Ebene 1"
     inkscape:groupmode="layer"
     id="layer1"
     transform="translate(-86.072969,-21.805362)">
    <circle
       r="117.70168"
       cy="140.78098"
       cx="211.30515"
       id="blue_background"
       style="display:inline;vector-effect:none;fill:#0e2b68;fill-opacity:1;stroke:none;stroke-width:1;stroke-linecap:butt;stroke-linejoin:miter;stroke-miterlimit:4;stroke-dasharray:none;stroke-dashoffset:0;stroke-opacity:1"
       inkscape:label="blue_background"
       transform="rotate(1.0163926)" />
    <circle
       r="90.617363"
       cy="144.50705"
       cx="208.77466"
       id="green_background"
       style="display:inline;vector-effect:none;fill:#30983e;fill-opacity:1;stroke:none;stroke-width:1;stroke-linecap:butt;stroke-linejoin:miter;stroke-miterlimit:4;stroke-dasharray:none;stroke-dashoffset:0;stroke-opacity:1"
       inkscape:label="green_background" />
    <path
       style="font-size:16.9333px;line-height:1.25;font-family:Roboto;-inkscape-font-specification:'Roboto, Normal';text-align:center;letter-spacing:0.79375px;word-spacing:0px;text-anchor:middle;fill:#fce190"
       d="m 150.4368,235.98427 5.24625,-4.71065 1.26869,0.8545 -7.15786,5.96515 -1.02866,-0.69283 1.98391,-6.83815 -5.54309,4.44093 -1.02867,-0.69283 2.84432,-8.87045 1.26183,0.84988 -2.28061,6.53862 5.46947,-4.39083 1.02181,0.68822 z m 11.59216,6.43206 4.63257,-5.31532 1.36344,0.69339 -6.37691,6.7936 -1.10549,-0.56221 1.13512,-7.02905 -4.9601,5.08382 -1.10548,-0.56221 1.74124,-9.15112 1.35606,0.68964 -1.46613,6.76795 4.89313,-5.02511 1.09812,0.55846 z m 12.2945,4.98653 3.97676,-5.82225 1.43539,0.52858 -5.53556,7.49504 -1.16382,-0.42859 0.30235,-7.1137 -4.32919,5.6308 -1.16383,-0.42858 0.65525,-9.29224 1.42763,0.52573 -0.66173,6.89325 4.26959,-5.56463 1.15606,0.42572 z m 3.89766,2.53976 q 0.10685,-0.38222 0.40105,-0.5747 0.30216,-0.19025 0.75604,-0.0634 0.45389,0.12689 0.61358,0.44626 0.16765,0.32159 0.0608,0.70381 -0.1024,0.3663 -0.4103,0.54636 -0.29993,0.18229 -0.75382,0.0554 -0.45388,-0.12689 -0.6158,-0.4383 -0.15395,-0.30918 -0.0515,-0.67547 z m 13.11491,-0.60502 q -0.41202,2.0087 -1.58624,3.04234 -1.17255,1.02554 -2.72767,0.70656 -1.66042,-0.34058 -2.32667,-1.7011 l -0.28057,0.9975 -1.37693,-0.28243 2.55187,-12.44096 1.49842,0.30736 -0.95197,4.64105 q 1.13809,-0.93976 2.7337,-0.61247 1.59562,0.32729 2.25523,1.7202 0.66771,1.39457 0.23741,3.49236 z m -1.46353,-0.47744 q 0.314,-1.53082 -0.10615,-2.48636 -0.42015,-0.95553 -1.52979,-1.18314 -1.48222,-0.30403 -2.41262,0.93999 l -0.77752,3.7906 q 0.40603,1.51814 1.86395,1.81719 1.07724,0.22096 1.84773,-0.49035 0.77049,-0.71132 1.1144,-2.38793 z m 4.93303,5.334 -1.51599,-0.20373 1.19156,-8.8665 1.51599,0.20374 z m -0.13128,-11.43858 q 0.0496,-0.36875 0.30494,-0.59305 0.26359,-0.2232 0.7061,-0.16373 0.4425,0.0595 0.63781,0.34434 0.19531,0.28486 0.14575,0.65362 -0.0496,0.36875 -0.31204,0.58375 -0.26249,0.215 -0.70499,0.15553 -0.44251,-0.0595 -0.63892,-0.33614 -0.18821,-0.27557 -0.13865,-0.64432 z m 7.0416,12.2627 q -1.81489,-0.12225 -2.87331,-1.38687 -1.05785,-1.27287 -0.92337,-3.26925 l 0.0189,-0.28048 q 0.0895,-1.32817 0.6627,-2.33372 0.58205,-1.01323 1.52895,-1.53782 0.9557,-0.53228 2.01989,-0.4606 1.74065,0.11725 2.6286,1.32895 0.88796,1.2117 0.74403,3.34833 l -0.0428,0.63521 -6.0469,-0.40733 q -0.0559,1.32215 0.62329,2.18831 0.68799,0.85846 1.82643,0.93515 0.80845,0.0545 1.39165,-0.23774 0.58319,-0.29219 1.04059,-0.80832 l 0.8833,0.78875 q -1.23808,1.64858 -3.48195,1.49743 z m 0.34929,-8.01481 q -0.92395,-0.0622 -1.59648,0.57199 -0.67197,0.62597 -0.90215,1.82865 l 4.47124,0.30119 0.008,-0.1155 q 0.0123,-1.16762 -0.50583,-1.84062 -0.51762,-0.68125 -1.47456,-0.74571 z m 9.98544,0.48146 q -0.34763,-0.0556 -0.75276,-0.0531 -1.50479,0.01 -2.03401,1.29461 l 0.0406,6.34986 -1.52959,0.01 -0.0572,-8.94602 1.48825,-0.01 0.0314,1.03335 q 0.74472,-1.20368 2.12548,-1.21252 0.44647,-0.003 0.67872,0.11142 z m 9.43753,2.53003 q 0.16887,2.04355 -0.66768,3.36544 -0.83724,1.31364 -2.41934,1.44438 -1.68923,0.13959 -2.71086,-0.97896 l 0.011,1.03614 -1.40082,0.11576 -1.04591,-12.65684 1.52442,-0.12597 0.39017,4.72159 q 0.82825,-1.22164 2.45155,-1.35578 1.62331,-0.13414 2.64766,1.01737 1.03259,1.15083 1.20895,3.28503 z m -1.53872,-0.0471 q -0.1287,-1.55738 -0.80036,-2.35641 -0.67167,-0.79903 -1.80057,-0.70574 -1.50794,0.12461 -2.05139,1.57991 l 0.31867,3.85638 q 0.81617,1.34294 2.29939,1.22037 1.09594,-0.0906 1.63558,-0.98968 0.53963,-0.89912 0.39868,-2.60483 z m 10.03745,3.07563 q -0.17616,-0.23765 -0.37512,-0.89104 -0.85838,1.27607 -2.31598,1.53264 -1.30289,0.22934 -2.27062,-0.3559 -0.96103,-0.59481 -1.16026,-1.72669 -0.24224,-1.37617 0.66676,-2.31694 0.91572,-0.95035 2.81304,-1.28432 l 1.46574,-0.25801 -0.12183,-0.69215 q -0.13904,-0.78988 -0.69303,-1.17089 -0.55544,-0.38916 -1.4756,-0.22719 -0.80616,0.1419 -1.28007,0.64508 -0.47391,0.50319 -0.37215,1.08135 l -1.5146,0.2666 q -0.1161,-0.65958 0.24055,-1.35201 0.36336,-0.70201 1.09831,-1.20077 0.74309,-0.5002 1.70397,-0.66933 1.52274,-0.26804 2.52064,0.34547 0.99646,0.60536 1.2641,1.93508 l 0.71382,4.05523 q 0.21357,1.21331 0.64914,1.87543 l 0.0229,0.13029 z m -2.70201,-0.70813 q 0.70844,-0.1247 1.27909,-0.60294 0.57066,-0.47824 0.75246,-1.1147 l -0.31821,-1.80775 -1.18073,0.20784 q -2.76863,0.48734 -2.48339,2.1078 0.1247,0.70844 0.66723,1.02432 0.54253,0.31587 1.28355,0.18543 z m 8.69257,-0.65366 -1.48518,0.36605 -3.03918,-12.33097 1.48518,-0.36605 z m 4.7242,-1.31122 -1.46749,0.43152 -3.58281,-12.18412 1.46749,-0.43153 z m 2.85981,-1.74786 q -0.12932,-0.37521 0.003,-0.70079 0.14048,-0.32827 0.58604,-0.48184 0.44557,-0.15357 0.75847,0.0184 0.32073,0.16932 0.45005,0.54453 0.12393,0.35958 -0.0271,0.68273 -0.14317,0.32046 -0.58874,0.47403 -0.44556,0.15357 -0.75578,-0.0106 -0.30239,-0.16689 -0.42632,-0.52647 z m 8.07054,-3.36435 q 0.75416,-0.31825 1.12499,-1.01319 0.37083,-0.69495 0.14246,-1.40626 l 1.3331,-0.56256 q 0.26087,0.72452 0.0815,1.55407 -0.17941,0.82955 -0.77284,1.52869 -0.5858,0.69591 -1.42375,1.04952 -1.68351,0.71043 -3.15398,0.0117 -1.46607,-0.70952 -2.28901,-2.65965 l -0.0997,-0.23615 q -0.50791,-1.2036 -0.46148,-2.32703 0.0464,-1.12342 0.65055,-1.98861 0.61174,-0.86839 1.73916,-1.34416 1.38642,-0.58506 2.65094,-0.14048 1.27214,0.44136 1.89243,1.74113 l -1.3331,0.56255 q -0.39848,-0.77414 -1.16234,-1.05307 -0.75945,-0.28977 -1.55931,0.0478 -1.0741,0.45327 -1.34039,1.48101 -0.26188,1.01692 0.35532,2.47952 l 0.11252,0.26662 q 0.60113,1.42451 1.51237,1.94638 0.91124,0.52186 2.00057,0.0622 z m 7.42461,-2.27217 -1.3671,0.68614 -5.6968,-11.35058 1.36709,-0.68614 z m 7.19827,-5.03906 q -0.23536,1.35817 -1.72359,2.23643 -1.23189,0.72698 -2.30009,0.39731 -1.06529,-0.34099 -1.90025,-1.73958 l -2.95835,-5.01299 1.31733,-0.77741 2.93734,4.97739 q 1.03375,1.7517 2.45789,0.91126 1.5096,-0.89087 1.3441,-2.3101 l -3.30714,-5.60401 1.31734,-0.77741 4.54679,7.70463 -1.25325,0.73959 z m 7.92446,-9.67975 q 1.20056,1.66231 1.16742,3.22631 -0.038,1.5573 -1.32493,2.48677 -1.37408,0.9924 -2.82674,0.56267 l 0.54479,0.88143 -1.13948,0.82297 -7.43574,-10.2956 1.24003,-0.89558 2.77388,3.84074 q 0.0778,-1.47389 1.39829,-2.42756 1.32046,-0.95367 2.79249,-0.49713 1.47872,0.4517 2.73254,2.18774 z m -1.34169,0.75482 q -0.91494,-1.26684 -1.90287,-1.60384 -0.98793,-0.33701 -1.90622,0.32621 -1.22663,0.8859 -0.93989,2.41266 l 2.26558,3.13694 q 1.3927,0.728 2.59922,-0.14337 0.89148,-0.64385 0.88887,-1.69248 -0.003,-1.04863 -1.00469,-2.43612 z"
       id="domain_text"
       inkscape:label="domain_text"
       transform="rotate(1.0163926,208.77466,144.50705)"
       aria-label="www.bierball.club" />
    <path
       inkscape:connector-curvature="0"
       id="name_baseline"
       d="M 127.1157,91.056474 A 97.596872,97.596872 0 0 1 262.22524,62.848093 97.596872,97.596872 0 0 1 290.43361,197.95762 97.596872,97.596872 0 0 1 155.32409,226.16601 97.596872,97.596872 0 0 1 127.1157,91.056474 Z"
       style="vector-effect:none;fill:none;fill-opacity:1;stroke:none;stroke-width:0.64213;stroke-linecap:butt;stroke-linejoin:miter;stroke-miterlimit:4;stroke-dasharray:none;stroke-dashoffset:0;stroke-opacity:1"
       inkscape:label="name_baseline" />
    <path
       inkscape:connector-curvature="0"
       id="domain_baseline"
       d="M 207.37486,33.945483 A 110.57042,110.57042 0 0 0 98.213089,145.90684 110.57042,110.57042 0 0 0 210.17445,255.0686 110.57042,110.57042 0 0 0 319.33621,143.10725 110.57042,110.57042 0 0 0 207.37486,33.945483 Z"
       style="display:inline;vector-effect:none;fill:none;fill-opacity:1;stroke:none;stroke-width:0.727488;stroke-linecap:butt;stroke-linejoin:miter;stroke-miterlimit:4;stroke-dasharray:none;stroke-dashoffset:0;stroke-opacity:1"
       inkscape:label="domain_baseline" />
    <path
       d="m 127.82686,89.848021 -9.70198,-7.127235 2.33006,-3.171801 q 1.16013,-1.579238 2.39567,-1.89247 1.24042,-0.319896 2.51981,0.619959 0.67967,0.499298 0.92217,1.272489 0.23583,0.768296 0.0328,1.64513 0.79751,-0.62475 1.75008,-0.622622 0.9508,-0.0094 1.80372,0.61714 1.30603,0.959435 1.43067,2.353942 0.12463,1.394507 -1.01103,2.940427 z m -3.59795,-4.612931 3.49165,2.565022 1.55174,-2.112314 q 0.65594,-0.892902 0.57308,-1.743748 -0.0846,-0.862404 -0.89756,-1.459604 -1.75249,-1.287406 -3.15248,0.618341 z m -1.02617,-0.753842 1.41957,-1.9324 q 0.61678,-0.839594 0.56412,-1.647743 -0.0478,-0.814812 -0.76743,-1.343481 -0.79961,-0.587409 -1.50209,-0.385302 -0.70915,0.197212 -1.40914,1.150085 l -1.39021,1.89242 z m 11.96981,-4.071499 -0.99548,1.161354 -6.79236,-5.822244 0.99549,-1.161355 z m -9.67022,-6.111074 q -0.28249,-0.242145 -0.33181,-0.578451 -0.0439,-0.342584 0.24664,-0.681574 0.29057,-0.33899 0.63584,-0.347951 0.34528,-0.009 0.62777,0.233183 0.28249,0.242145 0.32015,0.579348 0.0377,0.337203 -0.25291,0.676193 -0.29058,0.33899 -0.62957,0.353332 -0.33362,0.0081 -0.61611,-0.23408 z m 13.9794,1.713581 q -1.27365,1.298697 -2.92263,1.279675 -1.65488,-0.02481 -3.08345,-1.42582 l -0.20071,-0.196836 q -0.95041,-0.932077 -1.34106,-2.021622 -0.39076,-1.101237 -0.17307,-2.161626 0.21759,-1.07208 0.96441,-1.833589 1.22154,-1.245568 2.71943,-1.131527 1.49789,0.114042 3.02681,1.61347 l 0.45454,0.445776 -4.24356,4.327022 q 0.96767,0.902674 2.06733,0.950433 1.09955,0.03607 1.89847,-0.778571 0.56735,-0.578511 0.7249,-1.211498 0.15754,-0.632987 0.0632,-1.316142 l 1.17367,-0.1576 q 0.44641,2.012794 -1.12827,3.618455 z m -5.85923,-5.479845 q -0.6484,0.661155 -0.60433,1.584518 0.0382,0.917574 0.80173,1.874857 l 3.1378,-3.199516 -0.0827,-0.08105 q -0.87866,-0.769066 -1.72687,-0.813427 -0.85412,-0.05015 -1.52568,0.634618 z m 7.78626,-6.830869 q -0.29927,0.185415 -0.60391,0.452505 -1.13151,0.992048 -0.69074,2.309997 l 4.18622,4.774711 -1.15015,1.0084 -5.89778,-6.726872 1.11907,-0.981146 0.7,0.760782 q -0.22461,-1.3975 0.81364,-2.307786 0.33572,-0.294343 0.58611,-0.359927 z m 9.51196,-3.258797 q 1.2275,1.642514 1.21987,3.206849 -0.0126,1.557712 -1.28421,2.508038 -1.35772,1.014671 -2.8172,0.608687 l 0.5591,0.872427 -1.12592,0.841434 -7.60261,-10.17299 1.22527,-0.915678 2.83613,3.795002 q 0.0538,-1.47496 1.35852,-2.450034 1.30474,-0.975074 2.78401,-0.542597 1.4859,0.427526 2.76785,2.142894 z m -1.3292,0.776595 q -0.93548,-1.251755 -1.92877,-1.572606 -0.9933,-0.320851 -1.90065,0.357246 -1.21202,0.905779 -0.90043,2.427665 l 2.31642,3.099583 q 1.40439,0.7052 2.59654,-0.185731 0.88087,-0.658298 0.86116,-1.706743 -0.0197,-1.048445 -1.04427,-2.419414 z m 10.28322,-1.200477 q -0.25044,-0.157437 -0.67313,-0.693951 -0.3363,1.500688 -1.60118,2.269129 -1.13063,0.686875 -2.24483,0.493076 -1.11143,-0.205159 -1.70815,-1.187386 -0.72551,-1.194219 -0.22026,-2.400893 0.50802,-1.218032 2.15449,-2.218293 l 1.27195,-0.772734 -0.3649,-0.600643 q -0.41642,-0.685439 -1.07097,-0.839231 -0.65884,-0.160858 -1.45734,0.324247 -0.69958,0.425003 -0.95838,1.065951 -0.2588,0.640948 0.046,1.142662 l -1.31434,0.798491 q -0.34773,-0.572377 -0.26692,-1.347055 0.0836,-0.786037 0.5872,-1.517669 0.51068,-0.735924 1.34451,-1.242494 1.32142,-0.802785 2.47399,-0.593599 1.14829,0.202119 1.8806,1.343835 l 2.13789,3.519059 q 0.63966,1.052891 1.28596,1.5116 l 0.0687,0.113063 z m -2.77469,0.32158 q 0.61478,-0.373488 0.97277,-1.026326 0.358,-0.652839 0.29622,-1.311872 l -0.95303,-1.568738 -1.02463,0.62248 q -2.40257,1.459609 -1.54827,2.865819 0.37349,0.614776 0.99369,0.712036 0.62021,0.09726 1.26325,-0.293399 z m 7.48591,-2.856919 -1.3584,0.703207 -5.83851,-11.278346 1.35839,-0.703207 z m 3.70232,-1.782939 -1.38679,0.645403 -5.3586,-11.514114 1.3868,-0.645404 z m 3.47218,-6.354587 -3.73099,1.536236 -0.47535,-1.154467 3.73099,-1.536235 z m 10.57289,-2.862961 q 0.37042,1.886946 -0.44538,3.242451 -0.81045,1.345107 -2.68437,1.945776 -2.03139,0.651145 -3.72658,-0.411756 -1.68731,-1.065426 -2.4697,-3.506244 l -0.35333,-1.102304 q -0.51234,-1.598343 -0.33411,-2.992593 0.18611,-1.396774 1.02635,-2.378078 0.83771,-0.989177 2.21559,-1.430846 1.82668,-0.585526 3.25708,0.08471 1.42788,0.662361 2.18692,2.407369 l -1.5196,0.487097 q -0.63599,-1.306912 -1.49423,-1.709052 -0.85037,-0.404665 -2.03141,-0.02609 -1.44874,0.464383 -1.93223,1.800194 -0.47562,1.333288 0.15786,3.309563 l 0.35586,1.110179 q 0.59815,1.866045 1.73097,2.718492 1.13282,0.852446 2.53432,0.403207 1.25978,-0.403812 1.74732,-1.185236 0.49289,-0.791822 0.25907,-2.279738 z m 4.68153,2.880716 -1.4884,0.352701 -2.92838,-12.357751 1.48841,-0.352701 z m 7.68723,-2.348432 q -0.70978,1.18162 -2.41471,1.463405 -1.41125,0.233249 -2.28842,-0.459814 -0.87035,-0.702569 -1.14411,-2.308258 l -0.94918,-5.742912 1.50915,-0.249427 0.94243,5.702124 q 0.33167,2.006756 1.96318,1.737105 1.7294,-0.28583 2.0874,-1.669101 l -1.06107,-6.419988 1.50914,-0.249427 1.45882,8.826464 -1.43573,0.237293 z m 11.18728,-4.515922 q 0.1379,2.045875 -0.71859,3.354936 -0.85704,1.300811 -2.44094,1.407568 -1.69115,0.113986 -2.69571,-1.019916 l -0.005,1.036191 -1.40241,0.09453 -0.85406,-12.671226 1.52616,-0.102865 0.3186,4.726961 q 0.84666,-1.208955 2.47181,-1.318492 1.62515,-0.109537 2.63194,1.057363 1.01504,1.166344 1.15905,3.302963 z m -1.53783,-0.07037 q -0.10509,-1.559155 -0.76458,-2.368263 -0.65948,-0.809108 -1.78966,-0.732933 -1.50966,0.101753 -2.07509,1.54865 l 0.26022,3.860763 q 0.79573,1.355153 2.28064,1.255068 1.09718,-0.07395 1.65037,-0.964796 0.55319,-0.890844 0.4381,-2.598489 z m 10.15109,-0.09721 -0.36961,4.698365 -1.58261,-0.124498 0.94412,-12.00144 4.42635,0.348207 q 1.97002,0.154975 3.00368,1.248129 1.04191,1.093801 0.91157,2.750594 -0.13746,1.747462 -1.30832,2.609137 -1.16196,0.85408 -3.19792,0.693917 z m 0.1018,-1.294112 2.84375,0.223709 q 1.26938,0.09986 1.99197,-0.440448 0.72324,-0.548549 0.81208,-1.677806 0.0843,-1.071557 -0.54103,-1.767662 -0.62533,-0.696106 -1.8021,-0.81356 l -2.93442,-0.230841 z m 8.66693,2.268426 q 0.23815,-1.292894 0.93253,-2.232718 0.7025,-0.938325 1.70844,-1.333133 1.01407,-0.393311 2.17686,-0.179121 1.79704,0.331021 2.67374,1.778832 0.88484,1.449309 0.50439,3.514687 l -0.0195,0.105709 q -0.23666,1.284763 -0.9214,2.217953 -0.67512,0.926556 -1.69881,1.3265 -1.01557,0.401441 -2.20276,0.182758 -1.78891,-0.329523 -2.67374,-1.778832 -0.87671,-1.447811 -0.49925,-3.496926 z m 1.47949,0.457488 q -0.26961,1.463654 0.24203,2.474298 0.51978,1.012142 1.65818,1.221838 1.14652,0.211194 1.98619,-0.558941 0.84117,-0.778267 1.13924,-2.396417 0.26661,-1.447391 -0.2598,-2.469162 -0.51678,-1.028405 -1.65517,-1.238101 -1.11401,-0.205203 -1.96031,0.555303 -0.8463,0.760506 -1.15036,2.411182 z m 12.41992,-4.192742 -0.55685,2.093476 1.61405,0.429333 -0.30394,1.142623 -1.61405,-0.429334 -1.42615,5.361536 q -0.13815,0.519374 0.007,0.840442 0.14772,0.313078 0.6671,0.45123 0.25569,0.06801 0.72865,0.09115 l -0.31881,1.198555 q -0.6258,0.0047 -1.17714,-0.142002 -0.9908,-0.263551 -1.33479,-0.99673 -0.34399,-0.733179 -0.0507,-1.835849 l 1.42615,-5.361536 -1.5741,-0.418707 0.30394,-1.142622 1.5741,0.418707 0.55686,-2.093476 z m 6.17757,11.113823 q 0.20274,-0.58604 -0.13183,-1.060485 -0.32404,-0.479556 -1.34471,-1.095109 -1.01285,-0.612849 -1.54787,-1.165389 -0.52721,-0.549836 -0.68298,-1.111165 -0.14796,-0.558625 0.0683,-1.183735 0.35951,-1.039245 1.48335,-1.455375 1.13166,-0.413427 2.49908,0.05962 1.43776,0.497369 2.07174,1.54784 0.64181,1.053174 0.24175,2.209627 l -1.45338,-0.502775 q 0.20543,-0.593855 -0.1538,-1.199319 -0.35142,-0.602761 -1.11718,-0.867664 -0.7892,-0.273013 -1.35352,-0.08328 -0.56433,0.189734 -0.75625,0.744519 -0.18111,0.52353 0.14112,0.932466 0.32223,0.408935 1.31675,1.024192 1.00233,0.617961 1.55809,1.186423 0.55576,0.568463 0.71124,1.155936 0.166,0.582362 -0.0692,1.262169 -0.39195,1.133012 -1.53623,1.507074 -1.14158,0.366248 -2.58714,-0.133824 -1.01581,-0.351402 -1.67285,-0.98115 -0.65705,-0.629748 -0.88079,-1.424562 -0.21322,-0.799924 0.0463,-1.550056 l 1.44557,0.500072 q -0.21232,0.740206 0.17817,1.356482 0.401,0.611166 1.29178,0.919319 0.82046,0.283825 1.42626,0.125937 0.61632,-0.162999 0.80824,-0.717784 z m 4.06974,-0.814197 q 0.85208,-1.87418 2.25697,-2.606933 1.40831,-0.74028 2.84594,-0.08667 1.43009,0.650184 1.82071,2.008515 l 1.93002,-4.245131 1.39246,0.633073 -5.25622,11.561208 -1.27956,-0.581742 0.32921,-0.903911 q -1.30087,0.643805 -2.79118,-0.03375 -1.41505,-0.643339 -1.78375,-2.209691 -0.36117,-1.56293 0.48749,-3.429583 z m 1.3206,0.791137 q -0.62965,1.384936 -0.4135,2.4278 0.21614,1.042863 1.22474,1.501413 1.32472,0.602275 2.47507,-0.30978 l 1.70075,-3.740834 q -0.10116,-1.435632 -1.39578,-2.024219 -1.02365,-0.465394 -1.955,0.06485 -0.93135,0.530243 -1.63628,2.08077 z m 10.56697,10.322521 q 0.0175,-0.295295 0.2844,-0.924003 -1.47735,0.42735 -2.75964,-0.311662 -1.14619,-0.660569 -1.51248,-1.730542 -0.355,-1.073008 0.21887,-2.06876 0.69772,-1.210662 1.99863,-1.348429 1.3122,-0.140803 2.98134,0.821151 l 1.28946,0.74314 0.35093,-0.608913 q 0.40047,-0.694878 0.2203,-1.342664 -0.17603,-0.65495 -0.98553,-1.121477 -0.7092,-0.408727 -1.3956,-0.327156 -0.68639,0.08157 -0.97952,0.590193 l -1.33245,-0.767912 q 0.33442,-0.580258 1.05239,-0.882207 0.72926,-0.304984 1.61296,-0.215587 0.89086,0.09352 1.73618,0.580695 1.33961,0.77204 1.71087,1.883053 0.3754,1.103849 -0.27303,2.295208 l -2.05602,3.567514 q -0.61516,1.067389 -0.70625,1.854679 l -0.0661,0.114619 z m -1.61713,-2.277547 q 0.62324,0.359185 1.3678,0.358846 0.74455,-3.38e-4 1.29253,-0.371624 l 0.91654,-1.590338 -1.03873,-0.59864 q -2.43565,-1.403709 -3.25724,0.02186 -0.35918,0.62324 -0.14599,1.213717 0.2132,0.590477 0.86509,0.966175 z m 11.37666,-2.175437 -0.56432,0.817118 q 1.48251,-0.331914 2.8161,0.673593 1.49863,1.129952 1.17386,2.686861 0.74477,-0.24615 1.55146,-0.134954 0.8133,0.116173 1.59233,0.703549 2.35028,1.772082 0.51328,4.29087 l -3.60888,4.786386 -1.22135,-0.920885 3.55412,-4.713766 q 0.57742,-0.765822 0.51125,-1.405952 -0.0612,-0.646732 -0.88643,-1.268952 -0.68,-0.51271 -1.43755,-0.441879 -0.75257,0.06423 -1.34288,0.696073 l -3.57403,4.740173 -1.22796,-0.925863 3.52923,-4.680756 q 1.17475,-1.558052 -0.35029,-2.707914 -1.20155,-0.905953 -2.41543,-0.216166 l -3.93243,5.215511 -1.22135,-0.920886 5.38593,-7.143269 z m 10.60946,21.145987 q -1.25289,-1.31873 -1.17562,-2.966008 0.0833,-1.652973 1.53386,-3.031153 l 0.2038,-0.193628 q 0.96507,-0.916888 2.06774,-1.268805 1.11435,-0.351617 2.16639,-0.09659 1.06372,0.255323 1.79837,1.028578 1.20164,1.264783 1.03475,2.757707 -0.16689,1.492924 -1.71939,2.967918 l -0.46156,0.438512 -4.1744,-4.393771 q -0.9363,0.93517 -1.02288,2.032458 -0.0749,1.097586 0.71102,1.92479 0.55811,0.587435 1.18513,0.767244 0.62703,0.179809 1.31309,0.109648 l 0.11604,1.178504 q -2.02731,0.375031 -3.57634,-1.2554 z m 5.68342,-5.661976 q -0.63783,-0.671354 -1.56218,-0.659929 -0.91835,0.0057 -1.90201,0.734993 l 3.08667,3.248873 0.0839,-0.07973 q 0.79962,-0.850943 0.87392,-1.697063 0.0803,-0.851814 -0.58032,-1.547145 z m -1.41828,8.98107 q 0.30583,-0.252934 0.65726,-0.243154 0.3567,0.01615 0.65706,0.379326 0.30036,0.363176 0.24929,0.716573 -0.0458,0.359768 -0.35164,0.612702 -0.29309,0.242395 -0.64869,0.214604 -0.35033,-0.02142 -0.65069,-0.384597 -0.30036,-0.363176 -0.25565,-0.711303 0.05,-0.341755 0.34306,-0.584151 z m 6.37682,6.126933 10.07293,-2.995697 1.01242,1.410615 -12.38363,3.392126 -0.81957,-1.141927 7.18173,-10.640002 1.00759,1.403898 z m 1.59211,4.732729 q 0.33751,-0.208799 0.68431,-0.151119 0.35116,0.06471 0.59911,0.465502 0.24795,0.400791 0.14909,0.743902 -0.0945,0.350143 -0.43201,0.558942 -0.32345,0.2001 -0.67192,0.124007 -0.34413,-0.06906 -0.59208,-0.469852 -0.24795,-0.400791 -0.15612,-0.739552 0.0962,-0.33173 0.41962,-0.53183 z"
       id="name_text"
       style="font-size:16.9333px;line-height:1.25;font-family:Roboto;-inkscape-font-specification:'Roboto, Normal';letter-spacing:0px;word-spacing:0px;fill:#fce190"
       inkscape:label="name_text"
       aria-label="Bierball-Club Potsdam e.V." />
    <g
       id="hops"
       style="fill:#fce190;fill-opacity:1;stroke:none;stroke-width:0;stroke-miterlimit:4;stroke-dasharray:none"
       inkscape:label="hops"
       transform="matrix(0.96705922,0,0,0.96705922,265.7644,103.43653)">
      <path
         inkscape:connector-curvature="0"
         id="path2303"
         d="m -15.743046,-4.2612812 a 1.6178025,1.6178025 0 0 0 -1.062776,0.424847 1.6178025,1.6178025 0 0 0 -0.107198,2.2821911 l 3.096011,3.3852212 c -5.510344,6.0124639 -6.605215,14.6994409 -0.914015,22.5265729 2.713439,-2.698064 5.0898185,-5.330761 5.827109,-7.908913 a 1.6179645,1.6179645 0 0 1 2.4825758,-0.878572 c 2.0756681,1.459065 5.44096739,1.892293 9.1817221,1.986415 C 2.9999709,13.821788 2.8737812,10.426174 1.605275,8.2286378 A 1.6179645,1.6179645 0 0 1 2.7017572,5.8344374 C 5.3353216,5.3297097 8.1690244,3.1972618 11.09807,0.73494846 7.2074015,-2.66655 2.8854974,-4.1826641 -1.2728283,-4.0985182 c -3.6497583,0.073855 -7.1730356,1.3813892 -10.1683587,3.72825 l -3.082008,-3.3699073 a 1.6178025,1.6178025 0 0 0 -1.219851,-0.5211057 z"
         style="color:#000000;font-style:normal;font-variant:normal;font-weight:normal;font-stretch:normal;font-size:medium;line-height:normal;font-family:sans-serif;font-variant-ligatures:normal;font-variant-position:normal;font-variant-caps:normal;font-variant-numeric:normal;font-variant-alternates:normal;font-feature-settings:normal;text-indent:0;text-align:start;text-decoration:none;text-decoration-line:none;text-decoration-style:solid;text-decoration-color:#000000;letter-spacing:normal;word-spacing:normal;text-transform:none;writing-mode:lr-tb;direction:ltr;text-orientation:mixed;dominant-baseline:auto;baseline-shift:baseline;text-anchor:start;white-space:normal;shape-padding:0;clip-rule:nonzero;display:inline;overflow:visible;visibility:visible;isolation:auto;mix-blend-mode:normal;color-interpolation:sRGB;color-interpolation-filters:linearRGB;solid-color:#000000;solid-opacity:1;vector-effect:none;fill:#fce190;fill-opacity:1;fill-rule:nonzero;stroke:none;stroke-width:1;stroke-linecap:round;stroke-linejoin:round;stroke-miterlimit:4;stroke-dasharray:none;stroke-dashoffset:0;stroke-opacity:1;color-rendering:auto;image-rendering:auto;shape-rendering:auto;text-rendering:auto;enable-background:accumulate" />
      <path
         inkscape:connector-curvature="0"
         id="path2301"
         d="M 11.575431,4.9239244 C 9.404443,6.493897 7.2178632,7.6301784 4.9603142,8.3397735 5.612388,9.8983682 6.0627553,11.588979 6.2842874,13.430073 c 0.1065209,0.01944 0.2130195,0.03971 0.319406,0.05425 C 9.5668566,13.889401 12.944634,12.624712 16.78604,10.338003 15.08585,7.9459126 13.366147,6.1114388 11.575431,4.9239244 Z"
         style="color:#000000;font-style:normal;font-variant:normal;font-weight:normal;font-stretch:normal;font-size:medium;line-height:normal;font-family:sans-serif;font-variant-ligatures:normal;font-variant-position:normal;font-variant-caps:normal;font-variant-numeric:normal;font-variant-alternates:normal;font-feature-settings:normal;text-indent:0;text-align:start;text-decoration:none;text-decoration-line:none;text-decoration-style:solid;text-decoration-color:#000000;letter-spacing:normal;word-spacing:normal;text-transform:none;writing-mode:lr-tb;direction:ltr;text-orientation:mixed;dominant-baseline:auto;baseline-shift:baseline;text-anchor:start;white-space:normal;shape-padding:0;clip-rule:nonzero;display:inline;overflow:visible;visibility:visible;isolation:auto;mix-blend-mode:normal;color-interpolation:sRGB;color-interpolation-filters:linearRGB;solid-color:#000000;solid-opacity:1;vector-effect:none;fill:#fce190;fill-opacity:1;fill-rule:nonzero;stroke:none;stroke-width:1;stroke-linecap:round;stroke-linejoin:round;stroke-miterlimit:4;stroke-dasharray:none;stroke-dashoffset:0;stroke-opacity:1;color-rendering:auto;image-rendering:auto;shape-rendering:auto;text-rendering:auto;enable-background:accumulate" />
      <path
         inkscape:connector-curvature="0"
         id="path2299"
         d="m 16.36251,14.449972 c -1.116778,0.574929 -2.220787,1.062169 -3.315657,1.43862 0.858485,1.421947 1.358697,3.081451 1.539256,4.948101 1.521916,-0.40665 3.147665,-1.040831 4.878546,-1.858218 -0.992,-1.786977 -2.019417,-3.303243 -3.102145,-4.528503 z"
         style="color:#000000;font-style:normal;font-variant:normal;font-weight:normal;font-stretch:normal;font-size:medium;line-height:normal;font-family:sans-serif;font-variant-ligatures:normal;font-variant-position:normal;font-variant-caps:normal;font-variant-numeric:normal;font-variant-alternates:normal;font-feature-settings:normal;text-indent:0;text-align:start;text-decoration:none;text-decoration-line:none;text-decoration-style:solid;text-decoration-color:#000000;letter-spacing:normal;word-spacing:normal;text-transform:none;writing-mode:lr-tb;direction:ltr;text-orientation:mixed;dominant-baseline:auto;baseline-shift:baseline;text-anchor:start;white-space:normal;shape-padding:0;clip-rule:nonzero;display:inline;overflow:visible;visibility:visible;isolation:auto;mix-blend-mode:normal;color-interpolation:sRGB;color-interpolation-filters:linearRGB;solid-color:#000000;solid-opacity:1;vector-effect:none;fill:#fce190;fill-opacity:1;fill-rule:nonzero;stroke:none;stroke-width:1;stroke-linecap:round;stroke-linejoin:round;stroke-miterlimit:4;stroke-dasharray:none;stroke-dashoffset:0;stroke-opacity:1;color-rendering:auto;image-rendering:auto;shape-rendering:auto;text-rendering:auto;enable-background:accumulate" />
      <path
         inkscape:connector-curvature="0"
         id="path2296"
         d="m 9.6537759,16.697597 c -1.0765446,0.136217 -2.1490119,0.14893 -3.2215913,0.02538 -0.02453,0.97624 -0.1046391,1.98904 -0.2485264,3.043942 a 1.6179645,1.6179645 0 0 1 -1.5270014,1.397055 c -1.061356,0.04925 -2.0755785,0.03897 -3.0483127,-0.02319 0.026815,1.076658 -0.081521,2.141339 -0.3128422,3.199267 1.7486007,1.80463 4.9829834,2.4969 9.5838131,2.094051 0.810948,-4.546003 0.414883,-7.833684 -1.2255391,-9.736502 z"
         style="color:#000000;font-style:normal;font-variant:normal;font-weight:normal;font-stretch:normal;font-size:medium;line-height:normal;font-family:sans-serif;font-variant-ligatures:normal;font-variant-position:normal;font-variant-caps:normal;font-variant-numeric:normal;font-variant-alternates:normal;font-feature-settings:normal;text-indent:0;text-align:start;text-decoration:none;text-decoration-line:none;text-decoration-style:solid;text-decoration-color:#000000;letter-spacing:normal;word-spacing:normal;text-transform:none;writing-mode:lr-tb;direction:ltr;text-orientation:mixed;dominant-baseline:auto;baseline-shift:baseline;text-anchor:start;white-space:normal;shape-padding:0;clip-rule:nonzero;display:inline;overflow:visible;visibility:visible;isolation:auto;mix-blend-mode:normal;color-interpolation:sRGB;color-interpolation-filters:linearRGB;solid-color:#000000;solid-opacity:1;vector-effect:none;fill:#fce190;fill-opacity:1;fill-rule:nonzero;stroke:none;stroke-width:1;stroke-linecap:round;stroke-linejoin:round;stroke-miterlimit:4;stroke-dasharray:none;stroke-dashoffset:0;stroke-opacity:1;color-rendering:auto;image-rendering:auto;shape-rendering:auto;text-rendering:auto;enable-background:accumulate" />
      <path
         inkscape:connector-curvature="0"
         id="path2294"
         d="m -6.6164595,18.927722 c -0.9082617,2.186369 -2.2328845,4.261643 -3.9894695,6.283464 1.0251189,1.887537 2.7015857,3.76166 4.932342,5.667849 2.6175471,-3.620598 4.1798762,-6.875311 4.0406486,-9.861639 -0.00493,-0.105061 -0.015457,-0.210737 -0.024933,-0.31634 -1.8165233,-0.384579 -3.4625682,-0.984121 -4.9585881,-1.773334 z"
         style="color:#000000;font-style:normal;font-variant:normal;font-weight:normal;font-stretch:normal;font-size:medium;line-height:normal;font-family:sans-serif;font-variant-ligatures:normal;font-variant-position:normal;font-variant-caps:normal;font-variant-numeric:normal;font-variant-alternates:normal;font-feature-settings:normal;text-indent:0;text-align:start;text-decoration:none;text-decoration-line:none;text-decoration-style:solid;text-decoration-color:#000000;letter-spacing:normal;word-spacing:normal;text-transform:none;writing-mode:lr-tb;direction:ltr;text-orientation:mixed;dominant-baseline:auto;baseline-shift:baseline;text-anchor:start;white-space:normal;shape-padding:0;clip-rule:nonzero;display:inline;overflow:visible;visibility:visible;isolation:auto;mix-blend-mode:normal;color-interpolation:sRGB;color-interpolation-filters:linearRGB;solid-color:#000000;solid-opacity:1;vector-effect:none;fill:#fce190;fill-opacity:1;fill-rule:nonzero;stroke:none;stroke-width:1;stroke-linecap:round;stroke-linejoin:round;stroke-miterlimit:4;stroke-dasharray:none;stroke-dashoffset:0;stroke-opacity:1;color-rendering:auto;image-rendering:auto;shape-rendering:auto;text-rendering:auto;enable-background:accumulate" />
      <path
         inkscape:connector-curvature="0"
         id="path2292"
         d="m 16.136744,23.9012 c -0.521426,0.149761 -1.038416,0.276415 -1.551509,0.381531 -0.108806,1.302387 -0.329845,2.676428 -0.657181,4.116344 a 1.6179653,1.6179653 0 0 1 -1.363804,1.247417 c -1.46338,0.197773 -2.851378,0.295056 -4.1583482,0.287464 -0.1496893,0.49949 -0.320862,1.000947 -0.5153999,1.504686 1.93084,1.525602 5.0464251,2.123963 9.2525791,1.845532 0.651783,-4.1632 0.338873,-7.323106 -1.006337,-9.382974 z"
         style="color:#000000;font-style:normal;font-variant:normal;font-weight:normal;font-stretch:normal;font-size:medium;line-height:normal;font-family:sans-serif;font-variant-ligatures:normal;font-variant-position:normal;font-variant-caps:normal;font-variant-numeric:normal;font-variant-alternates:normal;font-feature-settings:normal;text-indent:0;text-align:start;text-decoration:none;text-decoration-line:none;text-decoration-style:solid;text-decoration-color:#000000;letter-spacing:normal;word-spacing:normal;text-transform:none;writing-mode:lr-tb;direction:ltr;text-orientation:mixed;dominant-baseline:auto;baseline-shift:baseline;text-anchor:start;white-space:normal;shape-padding:0;clip-rule:nonzero;display:inline;overflow:visible;visibility:visible;isolation:auto;mix-blend-mode:normal;color-interpolation:sRGB;color-interpolation-filters:linearRGB;solid-color:#000000;solid-opacity:1;vector-effect:none;fill:#fce190;fill-opacity:1;fill-rule:nonzero;stroke:none;stroke-width:1;stroke-linecap:round;stroke-linejoin:round;stroke-miterlimit:4;stroke-dasharray:none;stroke-dashoffset:0;stroke-opacity:1;color-rendering:auto;image-rendering:auto;shape-rendering:auto;text-rendering:auto;enable-background:accumulate" />
      <path
         inkscape:connector-curvature="0"
         id="path2139-2-9"
         d="m 0.18329359,27.655703 c -0.47254515,1.055643 -1.05568836,2.110738 -1.72696059,3.170389 1.12271481,1.188852 2.54023826,2.348638 4.2318486,3.495918 C 3.6564355,32.670905 4.4325484,31.10776 4.9729937,29.628116 3.1306859,29.282175 1.5226121,28.636697 0.18329359,27.655703 Z"
         style="color:#000000;font-style:normal;font-variant:normal;font-weight:normal;font-stretch:normal;font-size:medium;line-height:normal;font-family:sans-serif;font-variant-ligatures:normal;font-variant-position:normal;font-variant-caps:normal;font-variant-numeric:normal;font-variant-alternates:normal;font-feature-settings:normal;text-indent:0;text-align:start;text-decoration:none;text-decoration-line:none;text-decoration-style:solid;text-decoration-color:#000000;letter-spacing:normal;word-spacing:normal;text-transform:none;writing-mode:lr-tb;direction:ltr;text-orientation:mixed;dominant-baseline:auto;baseline-shift:baseline;text-anchor:start;white-space:normal;shape-padding:0;clip-rule:nonzero;display:inline;overflow:visible;visibility:visible;isolation:auto;mix-blend-mode:normal;color-interpolation:sRGB;color-interpolation-filters:linearRGB;solid-color:#000000;solid-opacity:1;vector-effect:none;fill:#fce190;fill-opacity:1;fill-rule:nonzero;stroke:none;stroke-width:1;stroke-linecap:round;stroke-linejoin:round;stroke-miterlimit:4;stroke-dasharray:none;stroke-dashoffset:0;stroke-opacity:1;color-rendering:auto;image-rendering:auto;shape-rendering:auto;text-rendering:auto;enable-background:accumulate" />
    </g>
    <g
       id="barley"
       style="fill:#fce190;fill-opacity:1;stroke:none"
       inkscape:label="barley"
       transform="matrix(1.2316083,0,0,1.2316083,18.306636,99.460412)">
      <path
         inkscape:connector-curvature="0"
         id="path6033"
         d="m 95.495498,37.930283 2.678475,-5.316726 2.678427,-5.316632 -0.59585,-0.503327 C 98.924542,25.670743 97.782459,23.794197 97.418981,22.134054 97.03392,20.374937 97.332991,17.7044 98.150644,15.602195 l 0.308197,-0.782803 0.702609,0.472535 c 4.20491,2.792386 5.90537,6.708245 4.73019,10.894073 -0.29207,1.041876 -0.63804,1.766627 -3.30698,6.926699 l -2.980384,5.762942 c -0.661859,1.279033 -2.719872,0.247978 -2.105992,-0.93834 z"
         style="clip-rule:evenodd;display:inline;fill:#fce190;fill-opacity:1;fill-rule:evenodd;stroke:none;stroke-width:1;stroke-linecap:round;stroke-linejoin:round;stroke-miterlimit:2.75;stroke-dasharray:none" />
      <path
         inkscape:connector-curvature="0"
         id="path6031"
         d="m 105.69274,28.38423 c 0.0296,-0.05727 0.20142,-0.576468 0.38545,-1.163849 0.40773,-1.295839 0.56953,-2.336438 0.57771,-3.716096 l 0.006,-1.041993 0.93757,-0.30451 c 1.68875,-0.548664 3.75762,-0.348673 5.96802,0.577008 l 1.03999,0.441279 -0.17508,0.336939 c -0.37611,0.723438 -1.67828,2.346835 -2.46103,3.066017 -1.37181,1.260695 -2.89011,1.949015 -4.48581,2.033008 -0.8132,0.0431 -1.86587,-0.08743 -1.79567,-0.223085 z"
         style="clip-rule:evenodd;display:inline;fill:#fce190;fill-opacity:1;fill-rule:evenodd;stroke:none;stroke-width:1;stroke-linecap:round;stroke-linejoin:round;stroke-miterlimit:2.75;stroke-dasharray:none" />
      <path
         inkscape:connector-curvature="0"
         id="path6029"
         d="m 105.83333,17.380324 c -3.65952,-2.570742 -4.66568,-5.613179 -3.29004,-9.9476773 0.19675,-0.621264 0.44034,-1.288655 0.54069,-1.482582 l 0.18242,-0.352531 0.98871,0.608512 c 1.13243,0.694954 2.57122,2.00514 3.17783,2.901241 0.66191,0.9771673 1.0605,2.4638963 1.03589,3.8593893 -0.0226,1.286647 -0.40449,3.188751 -0.90237,4.494009 l -0.29175,0.774369 -0.55661,-0.312341 c -0.30619,-0.171302 -0.70437,-0.412944 -0.88251,-0.541498 z"
         style="clip-rule:evenodd;display:inline;fill:#fce190;fill-opacity:1;fill-rule:evenodd;stroke:none;stroke-width:1;stroke-linecap:round;stroke-linejoin:round;stroke-miterlimit:2.75;stroke-dasharray:none" />
      <path
         inkscape:connector-curvature="0"
         id="path6027"
         d="m 110.03165,17.596288 c 0.24936,-0.772084 0.54521,-1.994523 0.65761,-2.717313 l 0.2041,-1.314254 0.74858,-0.37931 c 1.78812,-0.90574 4.149,-0.796532 6.71697,0.310676 l 1.02631,0.446246 -0.18242,0.352531 c -0.26845,0.518756 -1.53867,2.168259 -2.10195,2.730159 -1.58486,1.581158 -3.44415,2.371119 -5.41682,2.30146 -0.66506,-0.02316 -1.41145,-0.10662 -1.65892,-0.183804 l -0.45225,-0.137136 z"
         style="clip-rule:evenodd;display:inline;fill:#fce190;fill-opacity:1;fill-rule:evenodd;stroke:none;stroke-width:1;stroke-linecap:round;stroke-linejoin:round;stroke-miterlimit:2.75;stroke-dasharray:none" />
      <path
         inkscape:connector-curvature="0"
         id="path6025"
         d="m 109.92484,7.7482197 c -2.65989,-1.848765 -3.94319,-4.11013 -3.82596,-6.738999 0.0294,-0.66304197 0.15754,-1.61751297 0.2852,-2.1216771 0.25762,-1.0221514 0.87925,-2.7617651 1.00089,-2.8002091 0.16374,-0.052101 1.47688,0.7770997 2.37318,1.5054114 1.20514,0.9736622 2.00682,2.04373983 2.44343,3.25992083 0.71332,1.98799097 0.56219,3.72277797 -0.65182,7.48301297 -0.10992,0.329451 -0.13692,0.334897 -0.53988,0.109413 -0.23584,-0.13173 -0.72217,-0.446458 -1.08388,-0.696557 z"
         style="clip-rule:evenodd;display:inline;fill:#fce190;fill-opacity:1;fill-rule:evenodd;stroke:none;stroke-width:1;stroke-linecap:round;stroke-linejoin:round;stroke-miterlimit:2.75;stroke-dasharray:none" />
      <path
         inkscape:connector-curvature="0"
         id="path6023"
         d="m 113.7492,9.2645377 c 0.0489,-0.164856 0.19089,-0.57948 0.31739,-0.9222 0.12789,-0.340773 0.37932,-1.229253 0.55969,-1.973331 l 0.3272,-1.353237 c 0.9446,-0.914948 3.21163,-1.767051 4.71985,-1.673803 1.02278,0.07385 2.26455,0.396685 3.45014,0.893902 l 1.08628,0.453163 -0.52087,0.819323 c -1.30588,2.04611 -3.20155,3.701036 -4.87186,4.25196 -1.37022,0.4524673 -3.17212,0.4427103 -4.61479,-0.0237 -0.49142,-0.157408 -0.52648,-0.199677 -0.44999,-0.473864 z"
         style="clip-rule:evenodd;display:inline;fill:#fce190;fill-opacity:1;fill-rule:evenodd;stroke:none;stroke-width:1;stroke-linecap:round;stroke-linejoin:round;stroke-miterlimit:2.75;stroke-dasharray:none" />
      <path
         inkscape:connector-curvature="0"
         id="path4519-5-5-8"
         d="m 114.9013,1.2634347 c -0.47525,-3.0013484 -0.20643,-5.1142877 0.87645,-6.8888397 0.85764,-1.4045523 2.17749,-2.4174574 4.3539,-3.3378814 l 1.04339,-0.441131 0.18796,0.739187 c 0.30754,1.205588 0.43962,3.0030082 0.30963,4.2056689 -0.30426,2.8162248 -1.97773,4.87051023 -5.11466,6.2797802 -0.69569,0.312209 -1.31652,0.540574 -1.38053,0.50745 -0.0669,-0.03466 -0.1882,-0.511619 -0.27533,-1.064179 z"
         style="clip-rule:evenodd;display:inline;fill:#fce190;fill-opacity:1;fill-rule:evenodd;stroke:none;stroke-width:1;stroke-linecap:round;stroke-linejoin:round;stroke-miterlimit:2.75;stroke-dasharray:none" />
    </g>
    <g
       transform="matrix(1.1584072,0.66880671,-0.66880671,1.1584072,80.921482,654.75599)"
       id="bottle_1"
       style="display:inline;stroke:#30983e;stroke-width:1.4952;stroke-dasharray:none;stroke-opacity:1"
       inkscape:label="bottle 1">
      <path
         id="path4584-5-4"
         style="display:inline;fill:#0e2b68;fill-opacity:1;stroke:#30983e;stroke-width:1.4952;stroke-linecap:round;stroke-linejoin:miter;stroke-miterlimit:4;stroke-dasharray:none;stroke-opacity:1"
         d="m -126.02514,-434.33902 c -1.17285,0 -1.26113,2.22409 -0.22734,2.54775 -1.14031,2.84252 -1.888,4.97613 0.15174,5.77698 l -1.67146,23.8462 c -0.92025,13.13021 -6.68142,9.43627 -6.51364,20.35707 l 0.86966,56.59931 c 0,0 3.98838,2.08587 12.89045,2.08587 8.90206,0 12.89045,-2.08587 12.89045,-2.08587 l 0.86911,-56.59931 c 0.16778,-10.9208 -5.59338,-7.22686 -6.51366,-20.35707 l -1.67145,-23.8462 c 2.03975,-0.80085 1.29205,-2.93446 0.15175,-5.77698 1.0338,-0.32366 0.94549,-2.54775 -0.22733,-2.54775 h -5.49887 z"
         inkscape:connector-curvature="0" />
    </g>
    <g
       transform="matrix(1.1584072,-0.66880671,0.66880671,1.1584072,610.62002,493.875)"
       id="bottle_2"
       style="display:inline;fill:#0e2b68;fill-opacity:1;stroke:#30983e;stroke-width:1.4952;stroke-dasharray:none;stroke-opacity:1"
       inkscape:label="bottle 2">
      <path
         id="path4584-5-4-1"
         style="display:inline;fill:#0e2b68;fill-opacity:1;stroke:#30983e;stroke-width:1.4952;stroke-linecap:round;stroke-linejoin:miter;stroke-miterlimit:4;stroke-dasharray:none;stroke-opacity:1"
         d="m -122.50465,-432.59654 c -1.17285,0 -1.26113,2.22409 -0.22734,2.54775 -1.14031,2.84252 -1.888,4.97613 0.15174,5.77698 l -1.67146,23.8462 c -0.92025,13.13021 -6.68142,9.43627 -6.51364,20.35707 l 0.86966,56.59931 c 0,0 3.98838,2.08587 12.89045,2.08587 8.90206,0 12.89045,-2.08587 12.89045,-2.08587 l 0.86911,-56.59931 c 0.16778,-10.9208 -5.59338,-7.22686 -6.51366,-20.35707 l -1.67145,-23.8462 c 2.03975,-0.80085 1.29205,-2.93446 0.15175,-5.77698 1.0338,-0.32366 0.94549,-2.54775 -0.22733,-2.54775 h -5.49887 z"
         inkscape:connector-curvature="0" />
    </g>
    <g
       id="ball"
       transform="matrix(0.77941834,0.51758571,-0.51758571,0.77941834,99.691559,-227.30926)"
       style="stroke-width:1.92385;stroke-dasharray:none">
      <circle
         style="display:inline;fill:#fce190;fill-opacity:1;stroke:#30983e;stroke-width:1.92385;stroke-linecap:round;stroke-dasharray:none;stroke-opacity:1"
         id="path9-6-6-2-2"
         cx="-352.33099"
         cy="319.81204"
         transform="scale(-1,1)"
         r="22.097771" />
      <path
         style="display:inline;fill:#fce190;fill-opacity:1;stroke:#0e2b68;stroke-width:1.92385;stroke-linecap:round;stroke-dasharray:none;stroke-opacity:1"
         d="m 336.22835,304.67871 c 7.5329,-2.90768 17.52073,-3.53225 23.81177,0.63636"
         id="path8-8-0-6-0"
         sodipodi:nodetypes="cc" />
      <path
         style="display:inline;fill:#fce190;fill-opacity:1;stroke:#0e2b68;stroke-width:1.92385;stroke-linecap:round;stroke-dasharray:none;stroke-opacity:1"
         d="m 331.18596,313.39336 c 5.79788,-3.21665 19.53068,-4.48214 26.55852,-0.53932"
         id="path8-9-4-0-6-7"
         sodipodi:nodetypes="cc" />
      <path
         style="display:inline;fill:#fce190;fill-opacity:1;stroke:#0e2b68;stroke-width:1.92385;stroke-linecap:round;stroke-dasharray:none;stroke-opacity:1"
         d="m 373.48814,313.43331 c -1.24834,7.97753 -5.70135,16.93953 -12.457,20.30342"
         id="path8-2-4-7-3-1"
         sodipodi:nodetypes="cc" />
      <path
         style="display:inline;fill:#fce190;fill-opacity:1;stroke:#0e2b68;stroke-width:1.92385;stroke-linecap:round;stroke-dasharray:none;stroke-opacity:1"
         d="m 368.46222,304.70914 c -0.11323,6.62944 -5.88369,19.15515 -12.81221,23.27002"
         id="path8-9-0-6-4-6-1"
         sodipodi:nodetypes="cc" />
      <path
         style="display:inline;fill:#fce190;fill-opacity:1;stroke:#0e2b68;stroke-width:1.92385;stroke-linecap:round;stroke-dasharray:none;stroke-opacity:1"
         d="m 347.27653,341.32394 c -6.28458,-5.06985 -11.81939,-13.40727 -11.35479,-20.93979"
         id="path8-0-5-8-3-8"
         sodipodi:nodetypes="cc" />
      <path
         style="display:inline;fill:#fce190;fill-opacity:1;stroke:#0e2b68;stroke-width:1.92385;stroke-linecap:round;stroke-dasharray:none;stroke-opacity:1"
         d="m 357.34483,341.33345 c -5.68464,-3.41278 -13.64699,-14.673 -13.74633,-22.7307"
         id="path8-9-9-5-4-7-9"
         sodipodi:nodetypes="cc" />
      <path
         style="fill:none;fill-opacity:1;stroke:#0e2b68;stroke-width:1.92385;stroke-linecap:round;stroke-dasharray:none;stroke-opacity:1"
         d="m 352.33099,319.81199 c 6.33513,-4.96294 7.95015,-12.96137 9.45857,-19.9711"
         id="path6-6-9-7"
         sodipodi:nodetypes="cc" />
      <path
         style="fill:none;fill-opacity:1;stroke:#0e2b68;stroke-width:1.92385;stroke-linecap:round;stroke-dasharray:none;stroke-opacity:1"
         d="m 352.33099,319.81204 c -7.4656,-3.00492 -15.19995,-0.40435 -22.02477,1.79418"
         id="path6-6-9-7-1"
         sodipodi:nodetypes="cc" />
      <path
         style="fill:none;fill-opacity:1;stroke:#0e2b68;stroke-width:1.92385;stroke-linecap:round;stroke-dasharray:none;stroke-opacity:1"
         d="m 352.33099,319.81199 c 1.13046,7.96786 7.2498,13.36572 12.56619,18.17692"
         id="path6-6-9-7-8"
         sodipodi:nodetypes="cc" />
      <circle
         style="display:inline;fill:none;fill-opacity:1;stroke:#30983e;stroke-width:1.92385;stroke-linecap:round;stroke-dasharray:none;stroke-opacity:1"
         id="path9-4-9-8-9-9"
         cx="-352.33099"
         cy="319.81204"
         transform="scale(-1,1)"
         r="22.097771" />
    </g>
  </g>
</svg>
