<?xml version="1.0" encoding="UTF-8" standalone="no"?>
<!-- Created with Inkscape (http://www.inkscape.org/) -->

<svg
   width="250mm"
   height="250mm"
   viewBox="0 0 250 250"
   version="1.1"
   id="svg2358"
   sodipodi:docname="logo.svg"
   inkscape:version="1.1 (c68e22c387, 2021-05-23)"
   xmlns:inkscape="http://www.inkscape.org/namespaces/inkscape"
   xmlns:sodipodi="http://sodipodi.sourceforge.net/DTD/sodipodi-0.dtd"
   xmlns:xlink="http://www.w3.org/1999/xlink"
   xmlns="http://www.w3.org/2000/svg"
   xmlns:svg="http://www.w3.org/2000/svg">
  <sodipodi:namedview
     id="namedview2360"
     pagecolor="#ffffff"
     bordercolor="#666666"
     borderopacity="1.0"
     inkscape:pageshadow="2"
     inkscape:pageopacity="0.0"
     inkscape:pagecheckerboard="0"
     inkscape:document-units="mm"
     showgrid="false"
     fit-margin-top="0"
     fit-margin-left="0"
     fit-margin-right="0"
     fit-margin-bottom="0"
     inkscape:zoom="0.69575617"
     inkscape:cx="334.16879"
     inkscape:cy="449.1516"
     inkscape:window-width="1920"
     inkscape:window-height="1001"
     inkscape:window-x="-9"
     inkscape:window-y="-9"
     inkscape:window-maximized="1"
     inkscape:current-layer="layer1" />
  <defs
     id="defs2355">
    <color-profile
       name="ISO-Coated-v2-300---ECI-"
       xlink:href="../../../WINDOWS/system32/spool/drivers/color/ISOcoated_v2_300_eci.icc"
       id="color-profile1110" />
  </defs>
  <g
     inkscape:label="Ebene 1"
     inkscape:groupmode="layer"
     id="layer1"
     transform="translate(-91.072975,-26.805366)">
    <circle
       r="125"
       cy="151.80536"
       cx="216.07297"
       id="blue_background"
       style="display:inline;vector-effect:none;fill:#0e2b68;fill-opacity:1;stroke:none;stroke-width:1.06201;stroke-linecap:butt;stroke-linejoin:miter;stroke-miterlimit:4;stroke-dasharray:none;stroke-dashoffset:0;stroke-opacity:1"
       inkscape:label="blue" />
    <path
       id="green_background"
       style="display:inline;vector-effect:none;fill:#30983e;fill-opacity:1;stroke:none;stroke-width:4.0139;stroke-linecap:butt;stroke-linejoin:miter;stroke-miterlimit:4;stroke-dasharray:none;stroke-dashoffset:0;stroke-opacity:1"
       inkscape:label="green"
       d="M 472.44141,108.71289 A 363.72762,363.72762 0 0 0 108.71289,472.44141 363.72762,363.72762 0 0 0 472.44141,836.16797 363.72762,363.72762 0 0 0 836.16797,472.44141 363.72762,363.72762 0 0 0 472.44141,108.71289 Z m -23.58203,202.34766 h 22.07226 22.07227 c 4.70755,0 5.06165,8.92742 0.91211,10.22656 4.577,11.40956 7.5799,19.97301 -0.60743,23.1875 l 6.70899,95.7168 c 3.69388,52.70316 26.81797,37.87612 26.14453,81.71093 l -1.75781,114.4961 c 1.96219,-2.29151 3.94208,-4.5822 6.16601,-6.79102 2.87532,-2.85573 5.96147,-5.629 9.24414,-8.28125 3.28271,-2.65228 6.76192,-5.18354 10.41797,-7.55859 3.57691,-2.32373 7.33431,-4.48797 11.23633,-6.47656 v 0.002 a 81.757414,81.757414 0 0 1 36.55273,6.79101 c -1.83284,0.7053 -3.67197,1.49751 -5.50976,2.38672 -1.89778,0.91824 -3.7947,1.92919 -5.6836,3.02344 -1.88889,1.09429 -3.76915,2.27156 -5.63476,3.52148 -1.86561,1.24993 -3.71699,2.57375 -5.54492,3.95899 -3.65594,2.77043 -7.22167,5.79108 -10.64063,8.98047 -3.41896,3.18943 -6.68896,6.54673 -9.75586,9.99219 -3.06689,3.44541 -5.92955,6.9791 -8.52929,10.51757 -2.59975,3.53851 -4.93757,7.08216 -6.95508,10.55078 -1.00876,1.73435 -1.93767,3.45045 -2.7793,5.13672 -0.84166,1.68628 -1.59772,3.34304 -2.25781,4.96094 -0.66006,1.6179 -1.22334,3.19545 -1.6875,4.72461 -0.45517,1.49938 -0.80927,2.9491 -1.0625,4.34375 -2.71136,-0.71996 -5.40709,-1.48636 -8.03125,-2.4707 -0.0918,-0.0344 -0.1778,-0.0863 -0.26953,-0.1211 l -0.50391,32.80469 c 3.30736,0.92029 6.62121,1.85156 9.93945,2.53711 4.51726,0.93332 9.00876,1.64675 13.37305,2.12891 4.36434,0.4823 8.60255,0.73475 12.61524,0.74609 2.00632,0.006 3.9567,-0.048 5.83789,-0.16211 1.88118,-0.11425 3.69261,-0.28804 5.42382,-0.52539 1.73118,-0.23728 3.38113,-0.53793 4.9375,-0.90039 1.5261,-0.35554 2.95666,-0.77381 4.29102,-1.25195 0.73232,2.70807 1.41695,5.42668 1.87695,8.1914 0.559,3.35963 0.9168,6.76027 1.06836,10.20508 0.15156,3.44478 0.0963,6.9336 -0.16601,10.46484 -0.004,0.0457 -0.016,0.0929 -0.0195,0.13868 -1.27741,0.54856 -2.612,1.04519 -4.00196,1.49023 -1.39302,0.44606 -2.84191,0.84035 -4.33789,1.18164 -2.99195,0.68232 -6.17849,1.15277 -9.52148,1.41016 -3.34296,0.25701 -6.84193,0.30037 -10.45508,0.125 -3.61315,-0.17522 -7.34015,-0.56855 -11.14258,-1.1836 -3.80239,-0.61504 -7.67905,-1.45143 -11.58984,-2.51367 -2.84464,-0.77262 -5.71316,-1.79998 -8.57813,-2.8125 l -0.0527,3.42188 c 0,0 -16.01035,8.37109 -51.74219,8.37109 -35.73188,0 -51.74023,-8.37109 -51.74023,-8.37109 l -0.25977,-16.89453 c -1.44454,2.58902 -2.89578,5.18132 -4.60352,7.74218 -2.24824,3.37161 -4.722,6.70373 -7.41015,9.95703 -2.68811,3.25342 -5.59198,6.43013 -8.70117,9.48633 -3.04196,2.9901 -6.29144,5.85751 -9.71875,8.58399 h -0.002 a 81.75741,81.75741 0 0 1 -37.17382,0.6289 c 1.65547,-1.05653 3.30018,-2.19782 4.92382,-3.43554 1.67664,-1.27809 3.33397,-2.6469 4.9668,-4.09571 1.63287,-1.44884 3.24126,-2.97756 4.82031,-4.57421 1.57909,-1.59667 3.12947,-3.26254 4.64453,-4.98438 3.03028,-3.4436 5.92215,-7.11495 8.63672,-10.92188 2.71457,-3.80688 5.24981,-7.74869 7.56836,-11.73632 2.31855,-3.98763 4.42146,-8.02016 6.26367,-12.00586 1.84226,-3.98574 3.42534,-7.92542 4.71094,-11.72656 0.64282,-1.90062 1.21064,-3.76768 1.69922,-5.5879 0.48858,-1.82022 0.89837,-3.59354 1.22266,-5.31054 0.32432,-1.717 0.56284,-3.37581 0.71289,-4.9668 0.14815,-1.56007 0.20406,-3.04962 0.17383,-4.4668 2.80051,0.1649 5.59744,0.37725 8.36523,0.81836 2.75801,0.43954 5.48769,1.10899 8.21289,1.82618 l -0.49805,-32.39454 c -3.23611,-0.54436 -6.46926,-1.11437 -9.76953,-1.43164 -4.65415,-0.44742 -9.33458,-0.67043 -13.94726,-0.68554 -4.61265,-0.0141 -9.15646,0.18262 -13.5293,0.58007 -4.37284,0.39746 -8.57505,0.99405 -12.50977,1.78125 -1.96735,0.39364 -3.86881,0.83528 -5.68945,1.32227 -1.82067,0.48695 -3.56181,1.02003 -5.21094,1.59766 -1.64916,0.57762 -3.20535,1.19969 -4.6582,1.86523 -1.42465,0.65261 -2.74279,1.34752 -3.95508,2.08203 -1.25741,-2.50775 -2.47078,-5.03483 -3.47265,-7.65234 -1.2175,-3.18078 -2.24492,-6.44166 -3.08008,-9.78711 -0.83513,-3.34545 -1.47679,-6.77449 -1.92383,-10.28711 -0.008,-0.0453 -0.004,-0.0929 -0.0117,-0.13867 1.14244,-0.79219 2.35363,-1.54661 3.62695,-2.25977 1.2762,-0.71478 2.61574,-1.38894 4.01368,-2.02148 2.7959,-1.26501 5.82421,-2.36283 9.04882,-3.28125 3.22466,-0.91847 6.64516,-1.65851 10.22071,-2.20703 3.57554,-0.54853 7.30564,-0.90521 11.15429,-1.06055 3.84874,-0.15534 7.81532,-0.10882 11.85938,0.15234 4.04402,0.26136 8.16652,0.73816 12.32812,1.43946 4.1616,0.70125 8.3631,1.62847 12.56446,2.79296 0.84837,0.23516 1.68917,0.59599 2.53711,0.85157 l -1.64063,-106.77735 c -0.67343,-43.83481 22.45076,-29.00777 26.14453,-81.71093 l 6.70899,-95.7168 c -8.18725,-3.21449 -5.18646,-11.77794 -0.60938,-23.1875 -4.14954,-1.29914 -3.7936,-10.22656 0.91407,-10.22656 z M 308.05469,634.01953 c 0.0872,1.96195 0.25364,3.95551 0.51367,5.98047 0.26853,2.0911 0.62618,4.21111 1.06445,6.34961 0.43831,2.13853 0.95747,4.29512 1.55078,6.46094 0.59331,2.16586 1.26061,4.34254 1.99414,6.51562 1.4671,4.34612 3.20101,8.68517 5.14063,12.93945 1.93962,4.25439 4.08477,8.42207 6.37891,12.42383 2.29413,4.00173 4.735,7.83754 7.26562,11.42578 2.53062,3.58829 5.15167,6.92942 7.80078,9.94336 1.32458,1.50701 2.65626,2.9324 3.98828,4.26563 1.33206,1.33326 2.66348,2.57547 3.98828,3.71484 1.3248,1.13938 2.64251,2.17614 3.94532,3.10156 1.27744,0.90743 2.53899,1.70023 3.78125,2.38282 -1.54318,2.34278 -3.12442,4.65781 -4.89063,6.83398 -2.1459,2.64476 -4.45779,5.16459 -6.9375,7.56055 -2.47967,2.39599 -5.12876,4.6671 -7.94726,6.81055 -0.0367,0.0276 -0.0774,0.0517 -0.11524,0.0781 -1.25726,-0.59327 -2.51522,-1.2656 -3.76953,-2.01172 -1.25711,-0.74782 -2.51106,-1.57045 -3.75781,-2.46484 -2.49351,-1.78881 -4.95952,-3.8639 -7.36719,-6.19727 -2.40775,-2.3334 -4.75673,-4.92384 -7.01953,-7.74609 -2.26284,-2.82229 -4.43727,-5.8754 -6.49609,-9.13086 -2.05883,-3.25546 -4.00119,-6.71282 -5.79688,-10.3457 -1.79569,-3.63292 -3.44647,-7.43983 -4.91992,-11.39454 -1.47345,-3.95464 -2.77115,-8.05854 -3.86328,-12.27929 -1.06851,-4.12944 -1.92671,-8.37761 -2.57422,-12.70899 a 81.757411,81.757411 0 0 1 18.04297,-32.50781 z m 299.86133,10.42969 c 1.11378,0.83199 2.21259,1.74145 3.29296,2.72266 1.08284,0.98337 2.14796,2.03912 3.19141,3.16406 2.08687,2.24995 4.08816,4.77451 5.98242,7.54101 1.89426,2.7665 3.68111,5.77551 5.33594,8.99219 1.65483,3.21668 3.17635,6.6417 4.54492,10.24219 1.36857,3.60049 2.58367,7.37503 3.61914,11.29297 1.03552,3.91793 1.89323,7.97943 2.54883,12.14843 0.6556,4.16905 1.10923,8.44703 1.33789,12.80079 0.22296,4.25892 0.2168,8.59391 -0.0117,12.96679 v 0.002 a 81.757412,81.757412 0 0 1 -24.1582,28.25781 c 0.30557,-1.93996 0.53859,-3.92671 0.6875,-5.96289 0.15383,-2.10263 0.22587,-4.25261 0.22266,-6.43555 -0.003,-2.18298 -0.0828,-4.40001 -0.23243,-6.64062 -0.14967,-2.24066 -0.36856,-4.50365 -0.65429,-6.7793 -0.57135,-4.55135 -1.40635,-9.15142 -2.45899,-13.70703 -1.05263,-4.55558 -2.32304,-9.0666 -3.77344,-13.44531 -1.45033,-4.37874 -3.07922,-8.62384 -4.84374,-12.64454 -1.76459,-4.0207 -3.66499,-7.81727 -5.66016,-11.29882 -0.99757,-1.74078 -2.01904,-3.40259 -3.0586,-4.97461 -1.03953,-1.57202 -2.09685,-3.05493 -3.16796,-4.43555 -1.07108,-1.38059 -2.15584,-2.65962 -3.24805,-3.82617 -1.07093,-1.14391 -2.14918,-2.17331 -3.23047,-3.08985 1.97911,-1.98822 3.99198,-3.93997 6.15625,-5.7207 2.63006,-2.16393 5.39717,-4.17371 8.30469,-6.02734 2.90751,-1.8536 5.95536,-3.54929 9.14453,-5.08789 0.0412,-0.0193 0.0877,-0.0358 0.12891,-0.0547 z"
       transform="matrix(0.26458333,0,0,0.26458333,91.072975,26.805366)" />
    <path
       id="path2303"
       style="color:#000000;font-style:normal;font-variant:normal;font-weight:normal;font-stretch:normal;font-size:medium;line-height:normal;font-family:sans-serif;font-variant-ligatures:normal;font-variant-position:normal;font-variant-caps:normal;font-variant-numeric:normal;font-variant-alternates:normal;font-feature-settings:normal;text-indent:0;text-align:start;text-decoration:none;text-decoration-line:none;text-decoration-style:solid;text-decoration-color:#000000;letter-spacing:normal;word-spacing:normal;text-transform:none;writing-mode:lr-tb;direction:ltr;text-orientation:mixed;dominant-baseline:auto;baseline-shift:baseline;text-anchor:start;white-space:normal;shape-padding:0;clip-rule:nonzero;display:inline;overflow:visible;visibility:visible;isolation:auto;mix-blend-mode:normal;color-interpolation:sRGB;color-interpolation-filters:linearRGB;solid-color:#000000;solid-opacity:1;vector-effect:none;fill:#fce190;fill-opacity:1;fill-rule:nonzero;stroke:none;stroke-width:4.0139;stroke-linecap:round;stroke-linejoin:round;stroke-miterlimit:4;stroke-dasharray:none;stroke-dashoffset:0;stroke-opacity:1;color-rendering:auto;image-rendering:auto;shape-rendering:auto;text-rendering:auto;enable-background:accumulate"
       inkscape:label="yellow"
       d="m 469.41211,160.5957 a 19.845767,25.313477 0 0 0 -14.37109,7.85938 23.895921,27.338555 0 0 0 -15.19532,-6.23828 23.895921,27.338555 0 0 0 -23.89453,27.33984 23.895921,27.338555 0 0 0 0.28321,4.20117 27.946077,24.503446 0 0 0 -18.10352,22.9336 27.946077,24.503446 0 0 0 27.94531,24.5039 27.946077,24.503446 0 0 0 13.42188,-3.00976 l 11.99804,72.875 h 19.43555 19.94531 v -1.01172 l 6.84375,-74.06055 a 21.668337,21.263321 0 0 0 3.89063,0.34766 21.668337,21.263321 0 0 0 18.83984,-10.76563 19.845767,24.90846 0 0 0 15.38281,-24.26758 19.845767,24.90846 0 0 0 -19.8457,-24.91015 19.845767,24.90846 0 0 0 -10.8418,4.04687 20.655797,27.338555 0 0 0 -18.72265,-15.79297 20.655797,27.338555 0 0 0 -5.23242,0.89258 19.845767,25.313477 0 0 0 -11.7793,-4.94336 z m 270.95508,166.15235 -4.18946,1.77148 c -8.73584,3.69449 -14.03214,7.75875 -17.47461,13.39649 -4.34645,7.12282 -5.42713,15.60528 -3.51953,27.65234 h 0.004 c 0.34961,2.21794 0.83693,4.13236 1.10547,4.27148 0.25701,0.13304 2.74859,-0.78393 5.54101,-2.03711 12.59127,-5.65663 19.30802,-13.90303 20.5293,-25.20703 0.52177,-4.82732 -0.008,-12.04178 -1.24219,-16.88086 z m -549.57422,20.64453 a 6.4936713,6.4936713 0 0 0 -4.26563,1.70508 6.4936713,6.4936713 0 0 0 -0.42968,9.16015 l 12.42578,13.58789 c -22.11791,24.13334 -26.51178,59.00283 -3.66797,90.41992 10.89143,-10.82958 20.42926,-21.3977 23.38867,-31.74609 a 6.4943213,6.4943213 0 0 1 9.96484,-3.52734 c 8.33148,5.85653 21.84051,7.59681 36.85547,7.97461 0.96167,-14.99063 0.45491,-28.62075 -4.63672,-37.44141 a 6.4943213,6.4943213 0 0 1 4.40039,-9.60937 c 10.57085,-2.02594 21.94627,-10.58533 33.70313,-20.46875 -15.61671,-13.65325 -32.96521,-19.74009 -49.65625,-19.40235 -14.64971,0.29632 -28.79159,5.54483 -40.81445,14.96485 l -12.3711,-13.52539 a 6.4936713,6.4936713 0 0 0 -4.89648,-2.0918 z m 494.29687,1.38867 c -0.0302,-2.3e-4 -0.0538,0.003 -0.0742,0.0117 -0.48812,0.1542 -2.98353,7.13744 -4.01757,11.24023 -0.51243,2.02368 -1.02654,5.85424 -1.14453,8.51563 -0.47056,10.55195 4.67898,19.63005 15.35546,27.05078 h 0.008 c 1.4519,1.00388 3.40299,2.26812 4.34961,2.79687 1.61745,0.90509 1.72674,0.88293 2.16797,-0.43945 4.87282,-15.09316 5.47841,-22.05567 2.61523,-30.03515 -1.75253,-4.88164 -4.96934,-9.17776 -9.80664,-13.08594 -3.48522,-2.832 -8.5411,-6.04488 -9.45117,-6.05274 z m 48.08008,29.10352 c -6.00177,0.0809 -14.22082,3.30118 -17.77539,6.74414 l -1.31445,5.43164 c -0.72401,2.98662 -1.73276,6.55406 -2.2461,7.92187 -0.50774,1.37564 -1.07716,3.03945 -1.27343,3.70117 l 0.0117,-0.008 c -0.3069,1.10056 -0.1659,1.27064 1.80664,1.90234 5.79072,1.87212 13.02354,1.91204 18.52343,0.0957 6.70447,-2.21137 14.31305,-8.85552 19.55469,-17.06836 l 2.08985,-3.28711 -4.35938,-1.82031 c -4.7588,-1.99578 -9.74233,-3.29147 -13.84766,-3.58789 -0.37836,-0.0227 -0.76982,-0.0292 -1.16992,-0.0254 z m -432.72265,6.375 c -8.71408,6.30168 -17.49121,10.86272 -26.55274,13.71093 2.61736,6.25603 4.42524,13.04172 5.31445,20.43164 0.42754,0.0779 0.85424,0.16017 1.28125,0.21875 11.89384,1.62596 25.45214,-3.45032 40.8711,-12.6289 -6.82439,-9.60159 -13.72631,-16.96591 -20.91406,-21.73242 z m 368.03515,2.70507 -0.73047,1.41407 c -0.40278,0.77839 -1.38214,3.45751 -2.17187,5.95117 -5.52166,17.39818 -1.48188,29.61101 13.20703,39.92969 l 0.008,0.002 c 0.71501,0.51602 2.31394,1.48626 3.54297,2.17383 l 2.23438,1.2539 1.17187,-3.10742 c 1.99843,-5.23914 3.53039,-12.87464 3.62109,-18.03906 0.0987,-5.60137 -1.50134,-11.56799 -4.1582,-15.49024 -2.43485,-3.59686 -8.21045,-8.857 -12.75586,-11.64648 z m 44.23633,28.01758 c -3.89726,0.0378 -7.47712,0.84892 -10.61719,2.43946 l -3.0039,1.52148 -0.82032,5.27539 c -0.45116,2.9012 -1.63777,7.80719 -2.63867,10.90625 l -1.84179,5.6582 1.81445,0.54883 c 0.9933,0.30992 3.99067,0.64534 6.66015,0.73828 7.91808,0.27969 15.38076,-2.8917 21.74219,-9.23828 2.26095,-2.25539 7.36,-8.87481 8.4375,-10.95703 l 0.73047,-1.41602 -4.11914,-1.79101 c -5.79798,-2.49986 -11.33304,-3.73275 -16.34375,-3.68555 z m -393.05664,7.51367 c -4.48263,2.30771 -8.91391,4.26438 -13.30859,5.77539 3.44587,5.70754 5.45301,12.3688 6.17773,19.86133 6.10881,-1.63226 12.6345,-4.17809 19.58203,-7.45898 -3.98177,-7.17275 -8.10524,-13.25966 -12.45117,-18.17774 z m 329.52344,1.48438 -1.23633,3.14062 c -3.28199,8.43799 -4.48306,19.15788 -2.9375,26.21875 1.45897,6.66365 6.0441,14.19612 11.39062,18.70313 l 2.39063,2.01953 -10.75,21.3418 -10.75195,21.33984 0.0117,0.0273 c -2.46402,4.76176 5.7965,8.9015 8.45313,3.76758 l 11.96289,-23.13281 c 10.71281,-20.71192 12.1011,-23.62076 13.27344,-27.80273 4.71704,-16.80144 -2.10828,-32.51826 -18.98633,-43.72657 z m -356.45313,7.53906 c -4.32109,0.54675 -8.62446,0.59736 -12.92969,0.10156 -0.0986,3.91854 -0.42049,7.98256 -0.99804,12.2168 a 6.4943213,6.4943213 0 0 1 -6.12891,5.60742 c -4.26017,0.19767 -8.33189,0.15773 -12.23633,-0.0918 0.10772,4.32155 -0.3273,8.59538 -1.25586,12.84179 7.0187,7.24358 20.00157,10.02126 38.46875,8.4043 3.25508,-18.24714 1.66455,-31.44241 -4.91992,-39.08008 z m -65.30664,8.95117 c -3.64569,8.77584 -8.96296,17.10534 -16.01367,25.22071 4.1147,7.57636 10.84482,15.09876 19.79883,22.75 10.50652,-14.53267 16.77759,-27.59722 16.21875,-39.58399 -0.0189,-0.42172 -0.0614,-0.84566 -0.0996,-1.26953 -7.29132,-1.54367 -13.89946,-3.94938 -19.9043,-7.11719 z m 466.66992,11.75 c -2.92055,-0.0151 -5.67878,0.38902 -8.2207,1.21485 l -3.76172,1.22265 -0.0273,4.18164 c -0.034,5.53781 -0.68179,9.71467 -2.31836,14.91602 -0.73867,2.35767 -1.42805,4.442 -1.54688,4.67187 l -0.01,0.0195 c -0.28196,0.54447 3.94292,1.06752 7.20703,0.89453 6.40494,-0.33714 12.49954,-3.09986 18.00586,-8.16016 3.14184,-2.88669 8.36925,-9.40283 9.8789,-12.30664 l 0.70313,-1.35156 -4.17578,-1.77149 c -5.54517,-2.32225 -10.86684,-3.50717 -15.73438,-3.53125 z m -375.33984,8.21289 c -2.09295,0.60114 -4.16901,1.10935 -6.22852,1.53125 -0.43672,5.22766 -1.32479,10.74183 -2.63867,16.52149 a 6.4943247,6.4943247 0 0 1 -5.47265,5.00781 c -5.87384,0.79381 -11.44539,1.18476 -16.69141,1.1543 -0.60083,2.00489 -1.28751,4.01713 -2.06836,6.03906 7.75015,6.12359 20.25567,8.52577 37.13867,7.4082 2.61619,-16.71061 1.36045,-29.39401 -4.03906,-37.66211 z m -64.03711,15.07032 c -1.89676,4.23726 -4.23722,8.47131 -6.93164,12.72461 4.50648,4.77191 10.19641,9.42815 16.98633,14.0332 3.88649,-6.62737 7.00257,-12.90269 9.17187,-18.8418 -7.39483,-1.38856 -13.85067,-3.97839 -19.22656,-7.91601 z m 111.96289,131.63281 v 0.002 0.006 a 81.757415,81.757415 0 0 0 -12.21875,1.32813 81.757406,81.757406 0 0 0 -2.95703,0.57617 81.757415,81.757415 0 0 0 -11.82617,3.36328 c -6e-5,0 1e-5,0.002 0,0.002 -10e-5,0.002 3.7e-4,0.008 0,0.0117 a 81.757415,81.757415 0 0 0 -0.002,0 81.757415,81.757415 0 0 0 -31.62304,21.59375 81.757415,81.757415 0 0 0 -0.002,0 c 0.0871,1.96195 0.25544,3.95554 0.51563,5.98047 2.5e-4,0.002 -2.5e-4,0.004 0,0.006 0.002,0.0148 0.006,0.0301 0.008,0.0449 0.26773,2.07472 0.62188,4.17758 1.05664,6.29883 2.6e-4,10e-4 -2.6e-4,0.003 0,0.004 0.003,0.0162 0.008,0.0327 0.0117,0.0488 0.43603,2.12136 0.95047,4.26019 1.53906,6.40821 3.4e-4,10e-4 -3.3e-4,0.003 0,0.004 0.5931,2.16468 1.26112,4.33799 1.99414,6.50977 2.1e-4,5.9e-4 -2e-4,10e-4 0,0.002 v 0.002 c 0.006,0.0164 0.014,0.0324 0.0195,0.0488 1.46336,4.3285 3.18735,8.65359 5.11914,12.89063 1.93965,4.2544 4.08671,8.42012 6.38086,12.42187 2.29414,4.00175 4.73486,7.83758 7.26562,11.42578 2.53056,3.58831 5.14972,6.92939 7.79883,9.94336 1.32457,1.50699 2.65817,2.93239 3.99023,4.26563 1.33206,1.33326 2.66348,2.57547 3.98828,3.71484 1.30781,1.12472 2.60805,2.14613 3.89454,3.0625 0.0166,0.0119 0.0342,0.0273 0.0508,0.0391 0.0166,0.0118 0.0323,0.0195 0.0488,0.0313 1.26011,0.89259 2.50465,1.67982 3.73046,2.35351 -7.5e-4,5e-4 -10e-4,9.5e-4 -0.002,0.002 l 0.002,0.002 c -1.52776,2.32014 -3.09626,4.60938 -4.84179,6.76758 -0.0161,0.0198 -0.0308,0.0407 -0.0469,0.0605 -0.0183,0.0225 -0.0383,0.0439 -0.0566,0.0664 -2.11256,2.59696 -4.38603,5.07445 -6.82031,7.43164 -0.0213,0.0206 -0.0412,0.0419 -0.0625,0.0625 -0.0241,0.0233 -0.0501,0.0451 -0.0742,0.0684 -2.43491,2.34739 -5.03226,4.5751 -7.79297,6.67969 -0.027,0.0206 -0.051,0.0439 -0.0781,0.0644 -0.042,0.032 -0.0868,0.0618 -0.12891,0.0937 -0.0799,0.0606 -0.1698,0.11349 -0.25,0.17383 0.0434,-0.0326 0.0895,-0.063 0.13281,-0.0957 0.042,-0.0317 0.0889,-0.06 0.13086,-0.0918 -0.001,-6.1e-4 -0.003,-10e-4 -0.004,-0.002 10e-4,-8.6e-4 0.003,-10e-4 0.004,-0.002 -1.25728,-0.59324 -2.51521,-1.26371 -3.76953,-2.00976 -1.2571,-0.74787 -2.51102,-1.57238 -3.75781,-2.4668 -0.021,-0.0151 -0.0415,-0.0337 -0.0625,-0.0488 -2.45065,-1.7632 -4.87445,-3.8004 -7.24219,-6.08984 -0.0206,-0.0199 -0.0419,-0.0367 -0.0625,-0.0566 -0.0195,-0.0189 -0.0372,-0.0417 -0.0566,-0.0606 -2.36769,-2.29954 -4.68083,-4.84838 -6.9082,-7.6211 -0.0185,-0.0231 -0.0381,-0.0433 -0.0566,-0.0664 -0.016,-0.02 -0.0309,-0.0425 -0.0469,-0.0625 -2.22926,-2.78525 -4.37132,-5.79379 -6.40234,-9 -0.0148,-0.0234 -0.0301,-0.045 -0.0449,-0.0684 -0.0128,-0.0202 -0.0244,-0.0423 -0.0371,-0.0625 -2.032,-3.21785 -3.94929,-6.63263 -5.72461,-10.21875 -0.011,-0.0222 -0.0242,-0.0422 -0.0352,-0.0644 -0.009,-0.0178 -0.0166,-0.0369 -0.0254,-0.0547 -1.76961,-3.58497 -3.39522,-7.34014 -4.85156,-11.23828 -0.0131,-0.0351 -0.0279,-0.0684 -0.041,-0.10352 -0.0143,-0.0384 -0.0267,-0.0787 -0.041,-0.11719 -1.45023,-3.90462 -2.73377,-7.9517 -3.8125,-12.11523 -0.004,-0.014 -0.008,-0.027 -0.0117,-0.041 -3.2e-4,-10e-4 3.1e-4,-0.003 0,-0.004 -1.06503,-4.11616 -1.91968,-8.34908 -2.56641,-12.66602 -0.002,-0.0127 -0.006,-0.0244 -0.008,-0.0371 -2.9e-4,-0.002 2.8e-4,-0.004 0,-0.006 a 81.757415,81.757415 0 0 0 -2.26563,9.7461 81.757406,81.757406 0 0 0 0,0.004 81.757415,81.757415 0 0 0 -0.48632,21.11914 81.757406,81.757406 0 0 0 0.01,0.0723 81.757415,81.757415 0 0 0 4.94336,20.50586 81.757406,81.757406 0 0 0 0.0234,0.0586 81.757415,81.757415 0 0 0 10.03711,18.54688 81.757406,81.757406 0 0 0 0.043,0.0547 81.757415,81.757415 0 0 0 14.45117,15.34179 81.757406,81.757406 0 0 0 0.0312,0.0312 c 0,0 0.0117,-9.2e-4 0.0117,-0.0117 a 81.757406,81.757406 0 0 0 0.0293,0.0176 81.757415,81.757415 0 0 0 16.2168,10.3125 81.757406,81.757406 0 0 0 0.0547,0.0254 81.757415,81.757415 0 0 0 18.15234,6.2168 81.757406,81.757406 0 0 0 0.0606,0.0215 c 0.0433,-0.0276 0.0856,-0.0621 0.1289,-0.0898 1.53919,-0.98695 3.06637,-2.05175 4.57813,-3.19531 0.0676,-0.0512 0.13753,-0.0911 0.20508,-0.14258 0.003,-0.003 0.006,-0.005 0.01,-0.008 l 0.002,-0.002 c 0.003,-0.002 0.005,-0.004 0.008,-0.006 0.0614,-0.0468 0.12028,-0.10331 0.18164,-0.15039 1.57459,-1.20783 3.13413,-2.49304 4.66992,-3.85156 0.0328,-0.029 0.0669,-0.053 0.0996,-0.082 0.002,-0.002 0.004,-0.002 0.006,-0.004 l 0.002,-0.002 0.002,-0.002 c 0.0411,-0.0365 0.0801,-0.0787 0.12109,-0.11524 1.52686,-1.35961 3.03003,-2.78999 4.50977,-4.27929 0.0473,-0.0476 0.0972,-0.089 0.14453,-0.13672 0.0133,-0.0135 0.0277,-0.0256 0.041,-0.0391 v -0.002 c 0.0139,-0.014 0.0272,-0.0289 0.041,-0.043 1.55071,-1.56969 3.07357,-3.20599 4.5625,-4.89648 0.0131,-0.0149 0.0279,-0.0281 0.041,-0.043 v -0.002 c 0.006,-0.007 0.0118,-0.013 0.0176,-0.0195 0.0299,-0.034 0.056,-0.0734 0.0859,-0.10743 2.9709,-3.38472 5.80805,-6.98438 8.47461,-10.71875 0.0185,-0.0258 0.0402,-0.0484 0.0586,-0.0742 0.0184,-0.0258 0.0324,-0.0542 0.0508,-0.0801 2.67678,-3.75883 5.17967,-7.64715 7.47071,-11.58203 0.0146,-0.0251 0.0323,-0.0492 0.0469,-0.0742 0.0139,-0.0239 0.0232,-0.0483 0.0371,-0.0723 2.27741,-3.92149 4.34311,-7.88447 6.16016,-11.80469 0.0198,-0.0427 0.0467,-0.0862 0.0664,-0.1289 0.0187,-0.0404 0.0283,-0.0788 0.0469,-0.11914 1.81138,-3.92872 3.37443,-7.81173 4.64453,-11.56055 0.005,-0.0153 0.0144,-0.0316 0.0195,-0.0469 4.1e-4,-10e-4 -4.1e-4,-0.003 0,-0.004 0.64261,-1.89996 1.21074,-3.76437 1.69922,-5.58399 1.7e-4,-6.3e-4 -1.7e-4,-10e-4 0,-0.002 0.14623,-0.54477 0.23512,-1.05352 0.36719,-1.58984 0.30862,-1.25429 0.62839,-2.51646 0.85547,-3.71875 2.5e-4,-0.001 0.002,-0.003 0.002,-0.004 0.3228,-1.70872 0.55881,-3.35935 0.70898,-4.94336 6.1e-4,-0.006 0.001,-0.0132 0.002,-0.0195 1.3e-4,-0.001 -1.3e-4,-0.003 0,-0.004 1.9e-4,-0.002 -1.9e-4,-0.004 0,-0.006 0.14658,-1.55653 0.20556,-3.04284 0.17578,-4.45704 -1e-5,-6.3e-4 10e-6,-0.001 0,-0.002 2.79863,0.16463 5.591,0.3796 8.35742,0.82031 0.002,3.1e-4 0.004,-3e-4 0.006,0 0.003,4.2e-4 0.007,0.002 0.01,0.002 2.54947,0.4066 5.08152,0.96614 7.60351,1.61132 0.80115,0.20463 1.60608,0.38268 2.4043,0.61133 3.31483,0.94944 6.60557,2.10743 9.87109,3.47657 2.38282,0.99902 4.74961,2.11439 7.10547,3.33984 -2.31427,-1.20092 -4.64286,-2.29429 -6.98242,-3.2793 0.11485,1.38539 0.16355,2.81023 0.14453,4.26953 -0.0191,1.4626 -0.10469,2.95938 -0.25586,4.48633 -0.3024,3.0538 -0.8667,6.22665 -1.68359,9.47852 -0.81693,3.25176 -1.8865,6.58231 -3.19922,9.95312 -1.31274,3.37081 -2.86831,6.78077 -4.65821,10.19141 -0.61314,1.1684 -1.29116,2.33485 -1.95898,3.50195 -1.2675,2.21582 -2.59819,4.42955 -4.05859,6.62305 -0.0156,0.0234 -0.0293,0.0469 -0.0449,0.0703 -3.1e-4,4.7e-4 3.2e-4,10e-4 0,0.002 -0.008,0.0119 -0.0174,0.0233 -0.0254,0.0352 -2.22469,3.33384 -4.6732,6.62746 -7.32812,9.8457 -0.0197,0.0238 -0.037,0.0485 -0.0566,0.0723 -0.0213,0.0257 -0.0451,0.0504 -0.0664,0.0762 -2.64874,3.2005 -5.50602,6.32631 -8.5625,9.33594 -0.0248,0.0244 -0.0475,0.0498 -0.0723,0.0742 -0.0264,0.026 -0.0556,0.0502 -0.082,0.0762 -2.96293,2.907 -6.12517,5.69388 -9.45313,8.35156 -0.0632,0.0505 -0.12221,0.10391 -0.18555,0.1543 a 81.757415,81.757415 0 0 0 0.0156,-0.004 c -0.003,0.003 -0.006,0.005 -0.01,0.008 a 81.757406,81.757406 0 0 0 9.56836,-2.91015 81.757406,81.757406 0 0 0 0.125,-0.0625 81.757415,81.757415 0 0 0 11.64063,-5.78321 81.757406,81.757406 0 0 0 2.15234,-1.36718 81.757415,81.757415 0 0 0 9.46094,-6.96485 81.757406,81.757406 0 0 0 0.70312,-0.51757 c -0.0364,-0.014 -0.019,-0.01 -0.0547,-0.0234 a 81.757415,81.757415 0 0 0 27.03125,-48.31055 c -0.003,0 -0.009,8.6e-4 -0.0117,-0.01 a 81.757415,81.757415 0 0 0 -2.88672,-38.1875 c -1.74271,-0.90547 -3.55185,-1.75766 -5.43555,-2.54493 -1.94519,-0.81296 -3.96204,-1.56228 -6.0332,-2.25195 -2.07115,-0.68967 -4.19683,-1.31769 -6.36914,-1.88672 -2.17232,-0.56913 -4.39193,-1.08 -6.64063,-1.53125 -4.49737,-0.9026 -9.12121,-1.57211 -13.77539,-2.01953 -4.65417,-0.44742 -9.33653,-0.67142 -13.94922,-0.68555 -4.61265,-0.0138 -9.15644,0.18073 -13.52929,0.57813 -4.37284,0.3974 -8.57504,0.99594 -12.50977,1.7832 -1.96736,0.39358 -3.8688,0.83534 -5.68945,1.32227 -1.82067,0.48703 -3.56179,1.02003 -5.21094,1.59765 -1.64915,0.57763 -3.20535,1.19773 -4.6582,1.86329 -1.42463,0.6526 -2.74278,1.3495 -3.95508,2.08398 -1.24512,-2.48192 -2.44263,-4.98483 -3.4375,-7.57422 -0.004,-0.0114 -0.0112,-0.0218 -0.0156,-0.0332 -0.005,-0.0125 -0.0108,-0.0246 -0.0156,-0.0371 -10e-4,-0.002 -10e-4,-0.005 -0.002,-0.008 -0.004,-0.01 -0.006,-0.0197 -0.01,-0.0293 -1.20561,-3.15354 -2.22473,-6.38586 -3.05469,-9.70117 -0.002,-0.007 -0.004,-0.0142 -0.006,-0.0215 -0.003,-0.0112 -0.007,-0.022 -0.01,-0.0332 -3.9e-4,-10e-4 2.6e-4,-0.003 0,-0.004 -10e-4,-0.005 -0.003,-0.0104 -0.004,-0.0156 -0.001,-0.005 -0.003,-0.0105 -0.004,-0.0156 -0.83014,-3.33135 -1.47058,-6.74521 -1.91602,-10.24218 -4.3e-4,-0.003 -0.002,-0.006 -0.002,-0.01 -8e-5,-6.4e-4 8e-5,-10e-4 0,-0.002 -3.3e-4,-0.003 3.2e-4,-0.005 0,-0.008 -0.01,-0.0774 -0.0118,-0.15881 -0.0215,-0.23632 0.004,0.0317 0.008,0.064 0.0117,0.0957 3.2e-4,0.003 -3.2e-4,0.005 0,0.008 8e-5,6.4e-4 -8e-5,10e-4 0,0.002 1.1424,-0.79207 2.35168,-1.54273 3.625,-2.25585 1.2762,-0.71486 2.6157,-1.3909 4.01367,-2.02344 7.3e-4,-3.3e-4 10e-4,-0.002 0.002,-0.002 2.79526,-1.26468 5.82505,-2.36112 9.04882,-3.2793 3.22462,-0.91854 6.64512,-1.65851 10.22071,-2.20703 3.57551,-0.54856 7.30564,-0.90525 11.15429,-1.06055 3.84874,-0.15534 7.81341,-0.10687 11.85743,0.1543 4.04405,0.26154 8.16847,0.73624 12.33007,1.4375 4.1616,0.70136 8.3631,1.6303 12.56446,2.79492 0.0867,0.024 0.17311,0.0518 0.25976,0.0762 4.02367,1.12519 8.0443,2.47192 12.03321,4.04297 a 81.757415,81.757415 0 0 0 -7.30469,-6.83203 81.757415,81.757415 0 0 0 -2.5332,-1.75781 l -0.002,-0.0723 a 81.757406,81.757406 0 0 0 -0.66406,-0.38867 81.757415,81.757415 0 0 0 -14.41211,-8.4336 81.757406,81.757406 0 0 0 -0.64648,-0.32421 81.757415,81.757415 0 0 0 -15.70118,-5.01172 81.757406,81.757406 0 0 0 -2.85156,-0.53711 81.757415,81.757415 0 0 0 -16.30078,-1.44922 z m 194.78711,0.15039 c -0.003,10e-4 -0.004,0.003 -0.008,0.004 a 81.757402,81.757402 0 0 1 0.008,0 z m -0.008,0.004 a 81.757402,81.757402 0 0 0 -9.95313,0.94531 81.757412,81.757412 0 0 0 -12.87109,3.44726 81.757402,81.757402 0 0 0 -2.26563,0.86524 81.757412,81.757412 0 0 0 -11.08593,5.17969 81.757402,81.757402 0 0 0 -0.59961,0.27929 v 0.043 a 81.757412,81.757412 0 0 0 -35.77539,41.76758 c 0.003,0 0.005,0.01 0.008,0.01 a 81.757412,81.757412 0 0 0 -4.7832,37.99415 c 1.52725,1.23468 3.13524,2.43115 4.82421,3.57812 1.74412,1.18435 3.56884,2.32334 5.46094,3.41211 1.89211,1.08866 3.84996,2.12655 5.86524,3.11719 2.01526,0.99074 4.0856,1.93188 6.19922,2.82226 4.22719,1.78099 8.62801,3.3604 13.0996,4.72657 4.4652,1.36431 9.00277,2.51663 13.51368,3.44921 0.006,10e-4 0.0118,0.003 0.0176,0.004 0,0 0.002,0 0.002,0 0.005,9.5e-4 0.009,9.5e-4 0.0137,0.002 4.51267,0.93191 8.99749,1.64529 13.35742,2.12696 4.36432,0.48225 8.6006,0.73324 12.61328,0.74609 2.00634,0.0106 3.95866,-0.0482 5.83985,-0.16211 1.88118,-0.11425 3.69261,-0.28804 5.42382,-0.52539 1.7312,-0.23725 3.38113,-0.53587 4.9375,-0.89844 1.52547,-0.35541 2.95517,-0.77604 4.28907,-1.2539 h 0.002 c 0.73351,2.70799 1.41683,5.42604 1.87695,8.1914 0.55486,3.33472 0.90714,6.71239 1.06055,10.13086 0.001,0.0256 0.005,0.0506 0.006,0.0762 10e-4,0.0285 6.8e-4,0.0575 0.002,0.0859 0.14695,3.41711 0.0941,6.87489 -0.16601,10.37695 -0.005,0.0652 -0.0185,0.13209 -0.0234,0.19727 10e-4,-0.0195 0.004,-0.0391 0.006,-0.0586 0,0 -0.002,0 -0.002,0 -1.27673,0.54832 -2.61289,1.04542 -4.00196,1.49023 v 0.002 h -0.002 c -1.39306,0.44603 -2.83996,0.83851 -4.33594,1.17969 -2.99135,0.6821 -6.17727,1.15288 -9.51953,1.41016 0,0 -0.002,0 -0.002,0 -3.34237,0.25696 -6.84265,0.30183 -10.45508,0.12695 -0.003,-1.2e-4 -0.005,1.3e-4 -0.008,0 -3.58609,-0.17427 -7.28588,-0.56849 -11.0586,-1.17578 -0.0256,-0.004 -0.0505,-0.006 -0.0762,-0.01 -0.0284,-0.005 -0.0576,-0.011 -0.0859,-0.0156 -3.75223,-0.60993 -7.57398,-1.43537 -11.43164,-2.48047 -0.0242,-0.007 -0.0481,-0.011 -0.0723,-0.0176 -0.0474,-0.0129 -0.0952,-0.03 -0.14258,-0.043 -2.51319,-0.68615 -5.04197,-1.49504 -7.57227,-2.36914 -1.35963,-0.46915 -2.7184,-0.92945 -4.07812,-1.45312 -3.93826,-1.51687 -7.87291,-3.26346 -11.75781,-5.24219 -3.80085,-1.93583 -7.5495,-4.10919 -11.22266,-6.49414 a 81.757412,81.757412 0 0 0 5.79687,8.1543 81.757412,81.757412 0 0 0 11.60352,11.19531 c -0.0641,0.0187 -0.0817,0.03 -0.14648,0.0488 a 81.757402,81.757402 0 0 0 0.78906,0.47461 81.757412,81.757412 0 0 0 17.91406,10.75195 81.757402,81.757402 0 0 0 1.61328,0.72656 81.757412,81.757412 0 0 0 20.56641,5.47656 81.757402,81.757402 0 0 0 1.21875,0.20118 81.757412,81.757412 0 0 0 22.38672,-0.45313 81.757402,81.757402 0 0 0 0.0254,0 c 0,0 0,-0.002 0,-0.002 9e-4,0 0.003,-0.006 0.004,-0.01 a 81.757402,81.757402 0 0 0 0.0312,-0.01 81.757412,81.757412 0 0 0 18.47071,-5.31446 81.757402,81.757402 0 0 0 0.0547,-0.0215 81.757412,81.757412 0 0 0 16.74023,-9.51172 v -0.002 c 0.30545,-1.93937 0.53874,-3.92737 0.6875,-5.96289 0.15367,-2.10267 0.22587,-4.25259 0.22266,-6.43555 -0.003,-2.18295 -0.0828,-4.4 -0.23243,-6.64062 -0.14764,-2.21035 -0.36637,-4.44293 -0.64648,-6.6875 -0.004,-0.0306 -0.006,-0.0612 -0.01,-0.0918 -0.002,-0.0137 -0.004,-0.0273 -0.006,-0.041 -6.4e-4,-0.005 -9.5e-4,-0.0105 -0.002,-0.0156 -0.57113,-4.53296 -1.40092,-9.1136 -2.44922,-13.65039 -1.04909,-4.54022 -2.31743,-9.03551 -3.76172,-13.40039 -0.005,-0.0148 -0.009,-0.0301 -0.0137,-0.0449 -0.005,-0.0145 -0.0108,-0.0285 -0.0156,-0.043 -1.44672,-4.36317 -3.06751,-8.59422 -4.82617,-12.60157 -1.76456,-4.02065 -3.665,-7.81725 -5.66016,-11.29882 -0.98664,-1.72171 -1.9976,-3.36318 -3.02539,-4.91993 -0.0114,-0.0172 -0.0218,-0.0375 -0.0332,-0.0547 -0.0115,-0.0174 -0.0236,-0.0315 -0.0352,-0.0488 -1.02846,-1.55271 -2.07352,-3.02134 -3.13281,-4.38672 -1.05782,-1.36349 -2.12856,-2.62443 -3.20704,-3.7793 -0.006,-0.006 -0.0117,-0.0133 -0.0176,-0.0195 -0.008,-0.008 -0.0157,-0.0171 -0.0234,-0.0254 v -0.002 c -0.008,-0.008 -0.0155,-0.015 -0.0234,-0.0234 -0.01,-0.0106 -0.0194,-0.0187 -0.0293,-0.0293 -1.05341,-1.12123 -2.11437,-2.13578 -3.17774,-3.03711 1.97856,-1.98842 3.99002,-3.94004 6.1543,-5.7207 0,0 0.002,0 0.002,0 2.61749,-2.1535 5.37144,-4.15187 8.26367,-5.99805 0.0111,-0.007 0.0203,-0.0164 0.0312,-0.0234 0.002,-0.002 0.005,-0.002 0.008,-0.004 l 0.002,-0.002 c 0.003,-0.002 0.007,-0.004 0.01,-0.006 0.007,-0.004 0.0147,-0.007 0.0215,-0.0117 2.89782,-1.84559 5.93587,-3.53747 9.11328,-5.07031 0.104,-0.0502 0.21601,-0.0908 0.32031,-0.14063 -0.0626,0.0299 -0.12894,0.0559 -0.1914,0.0859 1.10454,0.82507 2.19195,1.72733 3.26367,2.69922 0.009,0.008 0.0184,0.0153 0.0273,0.0234 h 0.002 c 0.0102,0.009 0.0191,0.0201 0.0293,0.0293 1.06121,0.96533 2.10555,2.00006 3.12891,3.10156 l 0.004,0.004 c 0.009,0.01 0.0181,0.0195 0.0274,0.0293 0,0 0.002,0 0.002,0 0.005,0.005 0.009,0.0124 0.0137,0.0176 2.06243,2.22538 4.0397,4.72461 5.91406,7.45507 0.0169,0.0247 0.0358,0.0456 0.0527,0.0703 0.0204,0.0298 0.0382,0.0639 0.0586,0.0937 1.87161,2.7419 3.64224,5.7143 5.2793,8.89648 1.65483,3.21661 3.17635,6.6417 4.54492,10.24219 1.36857,3.60053 2.58367,7.375 3.61914,11.29297 1.03209,3.90486 1.88431,7.9509 2.53907,12.10547 4.1e-4,0.003 0.002,0.005 0.002,0.008 0.002,0.0112 0.004,0.022 0.006,0.0332 0.002,0.0123 0.004,0.0249 0.006,0.0371 0.002,0.0122 0.002,0.0249 0.004,0.0371 0.64445,4.11435 1.09117,8.3367 1.32032,12.63086 0.002,0.0329 0.008,0.0648 0.01,0.0977 7.5e-4,0.0142 9.5e-4,0.0287 0.002,0.043 5.7e-4,0.011 -5.7e-4,0.0222 0,0.0332 0.21901,4.22133 0.214,8.51645 -0.0117,12.84961 -6.8e-4,0.0132 6.9e-4,0.0259 0,0.0391 -7e-5,10e-4 7e-5,0.003 0,0.004 a 81.757412,81.757412 0 0 0 4.16211,-9.09766 81.757412,81.757412 0 0 0 1.35937,-4.01367 81.757402,81.757402 0 0 0 0.0996,-0.3125 81.757412,81.757412 0 0 0 1.0918,-3.92383 81.757402,81.757402 0 0 0 0.11132,-0.42969 81.757412,81.757412 0 0 0 0.84961,-3.86133 81.757402,81.757402 0 0 0 0.11719,-0.58789 81.757412,81.757412 0 0 0 0.63672,-3.89258 81.757402,81.757402 0 0 0 0.0703,-0.52148 81.757412,81.757412 0 0 0 0.41992,-3.88476 81.757402,81.757402 0 0 0 0.0527,-0.6504 81.757412,81.757412 0 0 0 0.20508,-3.85351 81.757402,81.757402 0 0 0 0.0137,-0.64453 81.757412,81.757412 0 0 0 -0.01,-3.9043 81.757402,81.757402 0 0 0 -0.0176,-0.5 81.757412,81.757412 0 0 0 -0.22852,-4.05273 81.757402,81.757402 0 0 0 -0.0293,-0.30664 81.757412,81.757412 0 0 0 -0.46875,-4.20704 81.757412,81.757412 0 0 0 -0.002,-0.0215 81.757402,81.757402 0 0 0 -0.01,-0.0625 81.757412,81.757412 0 0 0 -0.71093,-4.25 81.757402,81.757402 0 0 0 -0.0234,-0.12695 81.757412,81.757412 0 0 0 -0.91016,-4.0625 81.757402,81.757402 0 0 0 -0.0918,-0.38282 81.757412,81.757412 0 0 0 -1.11329,-3.9414 81.757402,81.757402 0 0 0 -0.11132,-0.3711 81.757412,81.757412 0 0 0 -1.30469,-3.81445 81.757402,81.757402 0 0 0 -0.17774,-0.48242 81.757412,81.757412 0 0 0 -1.48242,-3.66797 81.757402,81.757402 0 0 0 -0.22656,-0.51758 81.757412,81.757412 0 0 0 -1.63672,-3.49218 81.757402,81.757402 0 0 0 -0.33008,-0.65235 81.757412,81.757412 0 0 0 -1.83789,-3.41211 81.757402,81.757402 0 0 0 -0.24023,-0.41601 81.757412,81.757412 0 0 0 -2.09571,-3.4336 81.757402,81.757402 0 0 0 -0.25585,-0.38672 81.757412,81.757412 0 0 0 -2.33204,-3.38671 81.757402,81.757402 0 0 0 -0.0977,-0.13086 81.757412,81.757412 0 0 0 -2.6582,-3.44532 h -0.0117 a 81.757412,81.757412 0 0 0 -13.88282,-13.38086 81.757412,81.757412 0 0 0 -16.63086,-9.75781 c 0,0 -0.002,0.002 -0.002,0.002 -1.83205,0.70505 -3.67082,1.49398 -5.50781,2.38282 -1.89777,0.91821 -3.79471,1.92925 -5.6836,3.02343 -1.88887,1.0943 -3.76914,2.27161 -5.63476,3.52149 -1.86562,1.24998 -3.71697,2.57381 -5.54492,3.95898 -3.65592,2.77046 -7.22168,5.79116 -10.64063,8.98047 -3.41895,3.18942 -6.68895,6.54672 -9.75586,9.99219 -3.06689,3.44547 -5.9315,6.97712 -8.53125,10.51562 -2.59976,3.53851 -4.93755,7.08412 -6.95508,10.55274 -1.00875,1.73436 -1.93571,3.45046 -2.77734,5.13672 -0.84094,1.68501 -1.59418,3.3404 -2.2539,4.95703 -5.5e-4,10e-4 -9.2e-4,0.003 -0.002,0.004 -5.3e-4,9.8e-4 -9e-4,0.003 -0.002,0.004 -10e-4,0.003 -0.003,0.006 -0.004,0.01 -0.003,0.008 -0.005,0.0155 -0.008,0.0234 -0.65354,1.60489 -1.21518,3.17011 -1.67578,4.6875 -3.8e-4,10e-4 3.7e-4,0.003 0,0.004 -0.45002,1.48288 -0.79843,2.91639 -1.05078,4.29688 -10e-4,0.007 -0.005,0.0145 -0.006,0.0215 -10e-4,0.007 -0.003,0.0144 -0.004,0.0215 -2.67153,-0.70877 -5.32658,-1.4658 -7.91406,-2.43164 -0.0386,-0.0144 -0.0786,-0.0246 -0.11719,-0.0391 -3.18873,-1.19656 -6.31593,-2.58859 -9.375,-4.17969 -3.05902,-1.5912 -6.05144,-3.38235 -8.97851,-5.375 -1.48298,-1.00954 -2.94615,-2.07171 -4.39454,-3.18554 1.41195,1.08293 2.84141,2.11549 4.28516,3.10156 0.16362,-1.38061 0.39946,-2.78672 0.70899,-4.21289 0.31024,-1.42946 0.69395,-2.8796 1.14648,-4.3457 0.90507,-2.93231 2.09035,-5.92949 3.53906,-8.95313 1.44873,-3.02375 3.16083,-6.07375 5.11914,-9.11523 1.95832,-3.04149 4.16186,-6.07308 6.59571,-9.0586 0.78213,-0.95941 1.6263,-1.90493 2.45507,-2.85351 1.74939,-2.00318 3.56463,-3.99002 5.51563,-5.92774 2.87527,-2.85573 5.96342,-5.62697 9.24609,-8.27929 3.28271,-2.65229 6.76196,-5.1855 10.41797,-7.56055 3.57457,-2.32214 7.32933,-4.4832 11.22852,-6.4707 z m 51.28515,35.01757 c -0.0233,0.01 -0.045,0.0217 -0.0684,0.0312 -0.002,10e-4 -0.005,9e-4 -0.008,0.002 0.0258,-0.0107 0.0504,-0.0225 0.0762,-0.0332 z"
       transform="matrix(0.26458333,0,0,0.26458333,91.072975,26.805366)" />
  </g>
</svg>
